ISO-10303-21;
HEADER;
/* Generated by software containing ST-Developer
 * from STEP Tools, Inc. (www.steptools.com) 
 */
/* OPTION: using custom renumber hook */

FILE_DESCRIPTION(
/* description */ ('STEP AP203'),
/* implementation_level */ '2;1');

FILE_NAME(
/* name */ '6ac2748fb3126f5e9d9182b1',
/* time_stamp */ '2026-10-04T15:45:20Z',
/* author */ (''),
/* organization */ (''),
/* preprocessor_version */ 'ST-DEVELOPER v20',
/* originating_system */ 'ONSHAPE BY PTC INC, 1.221',
/* authorisation */ '  ');

FILE_SCHEMA (('CONFIG_CONTROL_DESIGN'));
ENDSEC;

DATA;
#10=PROPERTY_DEFINITION_REPRESENTATION(#14,#12);
#11=PROPERTY_DEFINITION_REPRESENTATION(#15,#13);
#12=REPRESENTATION('',(#16),#2351);
#13=REPRESENTATION('',(#17),#2351);
#14=PROPERTY_DEFINITION('pmi validation property','',#2356);
#15=PROPERTY_DEFINITION('pmi validation property','',#2356);
#16=VALUE_REPRESENTATION_ITEM('number of annotations',COUNT_MEASURE(0.));
#17=VALUE_REPRESENTATION_ITEM('number of views',COUNT_MEASURE(0.));
#18=SHAPE_REPRESENTATION_RELATIONSHIP('','',#1461,#19);
#19=ADVANCED_BREP_SHAPE_REPRESENTATION('',(#1459),#2351);
#20=CONICAL_SURFACE('',#1554,0.0045,0.785398163397448);
#21=CONICAL_SURFACE('',#1555,0.0025,0.785398163397448);
#22=CYLINDRICAL_SURFACE('',#1544,0.0025);
#23=B_SPLINE_CURVE_WITH_KNOTS('',3,(#1938,#1939,#1940,#1941,#1942),
 .UNSPECIFIED.,.F.,.F.,(4,1,4),(0.,0.00243850012230419,0.00487700024460837),
 .UNSPECIFIED.);
#24=B_SPLINE_CURVE_WITH_KNOTS('',3,(#1944,#1945,#1946,#1947,#1948),
 .UNSPECIFIED.,.F.,.F.,(4,1,4),(2.32587458497809E-19,0.00245901778825932,
0.00491803557651863),.UNSPECIFIED.);
#25=B_SPLINE_CURVE_WITH_KNOTS('',3,(#2022,#2023,#2024,#2025,#2026),
 .UNSPECIFIED.,.F.,.F.,(4,1,4),(0.,0.00243850012230418,0.00487700024460837),
 .UNSPECIFIED.);
#26=B_SPLINE_CURVE_WITH_KNOTS('',3,(#2029,#2030,#2031,#2032,#2033),
 .UNSPECIFIED.,.F.,.F.,(4,1,4),(1.43480310327886E-19,0.00245901778825931,
0.00491803557651863),.UNSPECIFIED.);
#27=B_SPLINE_CURVE_WITH_KNOTS('',3,(#2044,#2045,#2046,#2047,#2048),
 .UNSPECIFIED.,.F.,.F.,(4,1,4),(0.,0.00243850012230416,0.00487700024460832),
 .UNSPECIFIED.);
#28=B_SPLINE_CURVE_WITH_KNOTS('',3,(#2050,#2051,#2052,#2053,#2054),
 .UNSPECIFIED.,.F.,.F.,(4,1,4),(0.,0.00245901778825929,0.00491803557651858),
 .UNSPECIFIED.);
#29=B_SPLINE_CURVE_WITH_KNOTS('',3,(#2060,#2061,#2062,#2063,#2064),
 .UNSPECIFIED.,.F.,.F.,(4,1,4),(0.,0.00243850012230416,0.00487700024460832),
 .UNSPECIFIED.);
#30=B_SPLINE_CURVE_WITH_KNOTS('',3,(#2066,#2067,#2068,#2069,#2070),
 .UNSPECIFIED.,.F.,.F.,(4,1,4),(1.41533699973419E-19,0.00245901778825929,
0.00491803557651858),.UNSPECIFIED.);
#31=LINE('',#1927,#207);
#32=LINE('',#1930,#208);
#33=LINE('',#1932,#209);
#34=LINE('',#1934,#210);
#35=LINE('',#1936,#211);
#36=LINE('',#1952,#212);
#37=LINE('',#1955,#213);
#38=LINE('',#1957,#214);
#39=LINE('',#1959,#215);
#40=LINE('',#1960,#216);
#41=LINE('',#1963,#217);
#42=LINE('',#1965,#218);
#43=LINE('',#1967,#219);
#44=LINE('',#1968,#220);
#45=LINE('',#1971,#221);
#46=LINE('',#1973,#222);
#47=LINE('',#1975,#223);
#48=LINE('',#1976,#224);
#49=LINE('',#1979,#225);
#50=LINE('',#1981,#226);
#51=LINE('',#1983,#227);
#52=LINE('',#1984,#228);
#53=LINE('',#1986,#229);
#54=LINE('',#1988,#230);
#55=LINE('',#1989,#231);
#56=LINE('',#1992,#232);
#57=LINE('',#1994,#233);
#58=LINE('',#1996,#234);
#59=LINE('',#1997,#235);
#60=LINE('',#2000,#236);
#61=LINE('',#2002,#237);
#62=LINE('',#2004,#238);
#63=LINE('',#2005,#239);
#64=LINE('',#2008,#240);
#65=LINE('',#2010,#241);
#66=LINE('',#2012,#242);
#67=LINE('',#2013,#243);
#68=LINE('',#2016,#244);
#69=LINE('',#2018,#245);
#70=LINE('',#2020,#246);
#71=LINE('',#2035,#247);
#72=LINE('',#2037,#248);
#73=LINE('',#2038,#249);
#74=LINE('',#2040,#250);
#75=LINE('',#2042,#251);
#76=LINE('',#2056,#252);
#77=LINE('',#2058,#253);
#78=LINE('',#2072,#254);
#79=LINE('',#2074,#255);
#80=LINE('',#2076,#256);
#81=LINE('',#2078,#257);
#82=LINE('',#2080,#258);
#83=LINE('',#2082,#259);
#84=LINE('',#2084,#260);
#85=LINE('',#2086,#261);
#86=LINE('',#2088,#262);
#87=LINE('',#2090,#263);
#88=LINE('',#2093,#264);
#89=LINE('',#2095,#265);
#90=LINE('',#2097,#266);
#91=LINE('',#2099,#267);
#92=LINE('',#2101,#268);
#93=LINE('',#2103,#269);
#94=LINE('',#2105,#270);
#95=LINE('',#2107,#271);
#96=LINE('',#2109,#272);
#97=LINE('',#2111,#273);
#98=LINE('',#2113,#274);
#99=LINE('',#2115,#275);
#100=LINE('',#2118,#276);
#101=LINE('',#2120,#277);
#102=LINE('',#2122,#278);
#103=LINE('',#2124,#279);
#104=LINE('',#2126,#280);
#105=LINE('',#2128,#281);
#106=LINE('',#2130,#282);
#107=LINE('',#2132,#283);
#108=LINE('',#2134,#284);
#109=LINE('',#2136,#285);
#110=LINE('',#2138,#286);
#111=LINE('',#2140,#287);
#112=LINE('',#2143,#288);
#113=LINE('',#2145,#289);
#114=LINE('',#2147,#290);
#115=LINE('',#2149,#291);
#116=LINE('',#2151,#292);
#117=LINE('',#2153,#293);
#118=LINE('',#2155,#294);
#119=LINE('',#2157,#295);
#120=LINE('',#2159,#296);
#121=LINE('',#2161,#297);
#122=LINE('',#2163,#298);
#123=LINE('',#2165,#299);
#124=LINE('',#2168,#300);
#125=LINE('',#2170,#301);
#126=LINE('',#2172,#302);
#127=LINE('',#2174,#303);
#128=LINE('',#2176,#304);
#129=LINE('',#2178,#305);
#130=LINE('',#2180,#306);
#131=LINE('',#2182,#307);
#132=LINE('',#2184,#308);
#133=LINE('',#2186,#309);
#134=LINE('',#2188,#310);
#135=LINE('',#2190,#311);
#136=LINE('',#2193,#312);
#137=LINE('',#2195,#313);
#138=LINE('',#2197,#314);
#139=LINE('',#2199,#315);
#140=LINE('',#2201,#316);
#141=LINE('',#2203,#317);
#142=LINE('',#2205,#318);
#143=LINE('',#2207,#319);
#144=LINE('',#2209,#320);
#145=LINE('',#2211,#321);
#146=LINE('',#2213,#322);
#147=LINE('',#2215,#323);
#148=LINE('',#2218,#324);
#149=LINE('',#2220,#325);
#150=LINE('',#2222,#326);
#151=LINE('',#2224,#327);
#152=LINE('',#2226,#328);
#153=LINE('',#2228,#329);
#154=LINE('',#2230,#330);
#155=LINE('',#2232,#331);
#156=LINE('',#2234,#332);
#157=LINE('',#2236,#333);
#158=LINE('',#2238,#334);
#159=LINE('',#2240,#335);
#160=LINE('',#2243,#336);
#161=LINE('',#2245,#337);
#162=LINE('',#2247,#338);
#163=LINE('',#2249,#339);
#164=LINE('',#2251,#340);
#165=LINE('',#2253,#341);
#166=LINE('',#2255,#342);
#167=LINE('',#2257,#343);
#168=LINE('',#2259,#344);
#169=LINE('',#2261,#345);
#170=LINE('',#2263,#346);
#171=LINE('',#2265,#347);
#172=LINE('',#2268,#348);
#173=LINE('',#2270,#349);
#174=LINE('',#2272,#350);
#175=LINE('',#2274,#351);
#176=LINE('',#2275,#352);
#177=LINE('',#2277,#353);
#178=LINE('',#2279,#354);
#179=LINE('',#2282,#355);
#180=LINE('',#2283,#356);
#181=LINE('',#2285,#357);
#182=LINE('',#2287,#358);
#183=LINE('',#2290,#359);
#184=LINE('',#2291,#360);
#185=LINE('',#2293,#361);
#186=LINE('',#2295,#362);
#187=LINE('',#2298,#363);
#188=LINE('',#2299,#364);
#189=LINE('',#2301,#365);
#190=LINE('',#2303,#366);
#191=LINE('',#2306,#367);
#192=LINE('',#2307,#368);
#193=LINE('',#2309,#369);
#194=LINE('',#2311,#370);
#195=LINE('',#2314,#371);
#196=LINE('',#2315,#372);
#197=LINE('',#2317,#373);
#198=LINE('',#2319,#374);
#199=LINE('',#2322,#375);
#200=LINE('',#2323,#376);
#201=LINE('',#2325,#377);
#202=LINE('',#2327,#378);
#203=LINE('',#2330,#379);
#204=LINE('',#2331,#380);
#205=LINE('',#2333,#381);
#206=LINE('',#2335,#382);
#207=VECTOR('',#1566,1.);
#208=VECTOR('',#1567,1.);
#209=VECTOR('',#1568,1.);
#210=VECTOR('',#1569,1.);
#211=VECTOR('',#1570,1.);
#212=VECTOR('',#1575,1.);
#213=VECTOR('',#1576,1.);
#214=VECTOR('',#1577,1.);
#215=VECTOR('',#1578,1.);
#216=VECTOR('',#1579,1.);
#217=VECTOR('',#1580,1.);
#218=VECTOR('',#1581,1.);
#219=VECTOR('',#1582,1.);
#220=VECTOR('',#1583,1.);
#221=VECTOR('',#1584,1.);
#222=VECTOR('',#1585,1.);
#223=VECTOR('',#1586,1.);
#224=VECTOR('',#1587,1.);
#225=VECTOR('',#1588,1.);
#226=VECTOR('',#1589,1.);
#227=VECTOR('',#1590,1.);
#228=VECTOR('',#1591,1.);
#229=VECTOR('',#1592,1.);
#230=VECTOR('',#1593,1.);
#231=VECTOR('',#1594,1.);
#232=VECTOR('',#1595,1.);
#233=VECTOR('',#1596,1.);
#234=VECTOR('',#1597,1.);
#235=VECTOR('',#1598,1.);
#236=VECTOR('',#1599,1.);
#237=VECTOR('',#1600,1.);
#238=VECTOR('',#1601,1.);
#239=VECTOR('',#1602,1.);
#240=VECTOR('',#1603,1.);
#241=VECTOR('',#1604,1.);
#242=VECTOR('',#1605,1.);
#243=VECTOR('',#1606,1.);
#244=VECTOR('',#1607,1.);
#245=VECTOR('',#1608,1.);
#246=VECTOR('',#1609,1.);
#247=VECTOR('',#1612,1.);
#248=VECTOR('',#1613,1.);
#249=VECTOR('',#1614,1.);
#250=VECTOR('',#1617,1.);
#251=VECTOR('',#1618,1.);
#252=VECTOR('',#1619,1.);
#253=VECTOR('',#1622,1.);
#254=VECTOR('',#1623,1.);
#255=VECTOR('',#1626,1.);
#256=VECTOR('',#1627,1.);
#257=VECTOR('',#1628,1.);
#258=VECTOR('',#1631,1.);
#259=VECTOR('',#1632,1.);
#260=VECTOR('',#1635,1.);
#261=VECTOR('',#1636,1.);
#262=VECTOR('',#1639,1.);
#263=VECTOR('',#1642,1.);
#264=VECTOR('',#1643,1.);
#265=VECTOR('',#1644,1.);
#266=VECTOR('',#1645,1.);
#267=VECTOR('',#1648,1.);
#268=VECTOR('',#1649,1.);
#269=VECTOR('',#1650,1.);
#270=VECTOR('',#1653,1.);
#271=VECTOR('',#1654,1.);
#272=VECTOR('',#1657,1.);
#273=VECTOR('',#1658,1.);
#274=VECTOR('',#1661,1.);
#275=VECTOR('',#1664,1.);
#276=VECTOR('',#1665,1.);
#277=VECTOR('',#1666,1.);
#278=VECTOR('',#1667,1.);
#279=VECTOR('',#1670,1.);
#280=VECTOR('',#1671,1.);
#281=VECTOR('',#1672,1.);
#282=VECTOR('',#1675,1.);
#283=VECTOR('',#1676,1.);
#284=VECTOR('',#1679,1.);
#285=VECTOR('',#1680,1.);
#286=VECTOR('',#1683,1.);
#287=VECTOR('',#1686,1.);
#288=VECTOR('',#1687,1.);
#289=VECTOR('',#1688,1.);
#290=VECTOR('',#1689,1.);
#291=VECTOR('',#1692,1.);
#292=VECTOR('',#1693,1.);
#293=VECTOR('',#1694,1.);
#294=VECTOR('',#1697,1.);
#295=VECTOR('',#1698,1.);
#296=VECTOR('',#1701,1.);
#297=VECTOR('',#1702,1.);
#298=VECTOR('',#1705,1.);
#299=VECTOR('',#1708,1.);
#300=VECTOR('',#1709,1.);
#301=VECTOR('',#1710,1.);
#302=VECTOR('',#1711,1.);
#303=VECTOR('',#1714,1.);
#304=VECTOR('',#1715,1.);
#305=VECTOR('',#1716,1.);
#306=VECTOR('',#1719,1.);
#307=VECTOR('',#1720,1.);
#308=VECTOR('',#1723,1.);
#309=VECTOR('',#1724,1.);
#310=VECTOR('',#1727,1.);
#311=VECTOR('',#1730,1.);
#312=VECTOR('',#1731,1.);
#313=VECTOR('',#1732,1.);
#314=VECTOR('',#1733,1.);
#315=VECTOR('',#1736,1.);
#316=VECTOR('',#1737,1.);
#317=VECTOR('',#1738,1.);
#318=VECTOR('',#1741,1.);
#319=VECTOR('',#1742,1.);
#320=VECTOR('',#1745,1.);
#321=VECTOR('',#1746,1.);
#322=VECTOR('',#1749,1.);
#323=VECTOR('',#1752,1.);
#324=VECTOR('',#1753,1.);
#325=VECTOR('',#1754,1.);
#326=VECTOR('',#1755,1.);
#327=VECTOR('',#1758,1.);
#328=VECTOR('',#1759,1.);
#329=VECTOR('',#1760,1.);
#330=VECTOR('',#1763,1.);
#331=VECTOR('',#1764,1.);
#332=VECTOR('',#1767,1.);
#333=VECTOR('',#1768,1.);
#334=VECTOR('',#1771,1.);
#335=VECTOR('',#1774,1.);
#336=VECTOR('',#1775,1.);
#337=VECTOR('',#1776,1.);
#338=VECTOR('',#1777,1.);
#339=VECTOR('',#1780,1.);
#340=VECTOR('',#1781,1.);
#341=VECTOR('',#1782,1.);
#342=VECTOR('',#1785,1.);
#343=VECTOR('',#1786,1.);
#344=VECTOR('',#1789,1.);
#345=VECTOR('',#1790,1.);
#346=VECTOR('',#1793,1.);
#347=VECTOR('',#1796,1.);
#348=VECTOR('',#1797,1.);
#349=VECTOR('',#1798,1.);
#350=VECTOR('',#1799,1.);
#351=VECTOR('',#1802,1.);
#352=VECTOR('',#1803,1.);
#353=VECTOR('',#1806,1.);
#354=VECTOR('',#1809,1.);
#355=VECTOR('',#1814,1.);
#356=VECTOR('',#1815,1.);
#357=VECTOR('',#1818,1.);
#358=VECTOR('',#1821,1.);
#359=VECTOR('',#1826,1.);
#360=VECTOR('',#1827,1.);
#361=VECTOR('',#1830,1.);
#362=VECTOR('',#1833,1.);
#363=VECTOR('',#1838,1.);
#364=VECTOR('',#1839,1.);
#365=VECTOR('',#1842,1.);
#366=VECTOR('',#1845,1.);
#367=VECTOR('',#1850,1.);
#368=VECTOR('',#1851,1.);
#369=VECTOR('',#1854,1.);
#370=VECTOR('',#1857,1.);
#371=VECTOR('',#1862,1.);
#372=VECTOR('',#1863,1.);
#373=VECTOR('',#1866,1.);
#374=VECTOR('',#1869,1.);
#375=VECTOR('',#1874,1.);
#376=VECTOR('',#1875,1.);
#377=VECTOR('',#1878,1.);
#378=VECTOR('',#1881,1.);
#379=VECTOR('',#1886,1.);
#380=VECTOR('',#1887,1.);
#381=VECTOR('',#1890,1.);
#382=VECTOR('',#1893,1.);
#383=ORIENTED_EDGE('',*,*,#767,.T.);
#384=ORIENTED_EDGE('',*,*,#768,.T.);
#385=ORIENTED_EDGE('',*,*,#769,.F.);
#386=ORIENTED_EDGE('',*,*,#770,.F.);
#387=ORIENTED_EDGE('',*,*,#771,.T.);
#388=ORIENTED_EDGE('',*,*,#772,.T.);
#389=ORIENTED_EDGE('',*,*,#773,.F.);
#390=ORIENTED_EDGE('',*,*,#774,.T.);
#391=ORIENTED_EDGE('',*,*,#775,.T.);
#392=ORIENTED_EDGE('',*,*,#776,.T.);
#393=ORIENTED_EDGE('',*,*,#777,.F.);
#394=ORIENTED_EDGE('',*,*,#778,.T.);
#395=ORIENTED_EDGE('',*,*,#779,.T.);
#396=ORIENTED_EDGE('',*,*,#780,.F.);
#397=ORIENTED_EDGE('',*,*,#781,.F.);
#398=ORIENTED_EDGE('',*,*,#782,.T.);
#399=ORIENTED_EDGE('',*,*,#783,.T.);
#400=ORIENTED_EDGE('',*,*,#784,.F.);
#401=ORIENTED_EDGE('',*,*,#785,.F.);
#402=ORIENTED_EDGE('',*,*,#786,.T.);
#403=ORIENTED_EDGE('',*,*,#787,.T.);
#404=ORIENTED_EDGE('',*,*,#788,.F.);
#405=ORIENTED_EDGE('',*,*,#789,.F.);
#406=ORIENTED_EDGE('',*,*,#790,.T.);
#407=ORIENTED_EDGE('',*,*,#791,.T.);
#408=ORIENTED_EDGE('',*,*,#792,.F.);
#409=ORIENTED_EDGE('',*,*,#793,.F.);
#410=ORIENTED_EDGE('',*,*,#794,.T.);
#411=ORIENTED_EDGE('',*,*,#795,.T.);
#412=ORIENTED_EDGE('',*,*,#771,.F.);
#413=ORIENTED_EDGE('',*,*,#796,.T.);
#414=ORIENTED_EDGE('',*,*,#797,.T.);
#415=ORIENTED_EDGE('',*,*,#798,.F.);
#416=ORIENTED_EDGE('',*,*,#799,.F.);
#417=ORIENTED_EDGE('',*,*,#800,.T.);
#418=ORIENTED_EDGE('',*,*,#801,.T.);
#419=ORIENTED_EDGE('',*,*,#802,.F.);
#420=ORIENTED_EDGE('',*,*,#803,.F.);
#421=ORIENTED_EDGE('',*,*,#804,.F.);
#422=ORIENTED_EDGE('',*,*,#805,.T.);
#423=ORIENTED_EDGE('',*,*,#806,.T.);
#424=ORIENTED_EDGE('',*,*,#807,.F.);
#425=ORIENTED_EDGE('',*,*,#808,.F.);
#426=ORIENTED_EDGE('',*,*,#809,.T.);
#427=ORIENTED_EDGE('',*,*,#810,.T.);
#428=ORIENTED_EDGE('',*,*,#811,.F.);
#429=ORIENTED_EDGE('',*,*,#812,.T.);
#430=ORIENTED_EDGE('',*,*,#813,.T.);
#431=ORIENTED_EDGE('',*,*,#814,.F.);
#432=ORIENTED_EDGE('',*,*,#815,.F.);
#433=ORIENTED_EDGE('',*,*,#793,.T.);
#434=ORIENTED_EDGE('',*,*,#770,.T.);
#435=ORIENTED_EDGE('',*,*,#816,.F.);
#436=ORIENTED_EDGE('',*,*,#817,.T.);
#437=ORIENTED_EDGE('',*,*,#818,.T.);
#438=ORIENTED_EDGE('',*,*,#819,.T.);
#439=ORIENTED_EDGE('',*,*,#820,.T.);
#440=ORIENTED_EDGE('',*,*,#821,.T.);
#441=ORIENTED_EDGE('',*,*,#772,.F.);
#442=ORIENTED_EDGE('',*,*,#795,.F.);
#443=ORIENTED_EDGE('',*,*,#822,.T.);
#444=ORIENTED_EDGE('',*,*,#823,.T.);
#445=ORIENTED_EDGE('',*,*,#824,.T.);
#446=ORIENTED_EDGE('',*,*,#825,.T.);
#447=ORIENTED_EDGE('',*,*,#817,.F.);
#448=ORIENTED_EDGE('',*,*,#794,.F.);
#449=ORIENTED_EDGE('',*,*,#815,.T.);
#450=ORIENTED_EDGE('',*,*,#826,.F.);
#451=ORIENTED_EDGE('',*,*,#827,.T.);
#452=ORIENTED_EDGE('',*,*,#828,.T.);
#453=ORIENTED_EDGE('',*,*,#790,.F.);
#454=ORIENTED_EDGE('',*,*,#829,.F.);
#455=ORIENTED_EDGE('',*,*,#830,.T.);
#456=ORIENTED_EDGE('',*,*,#826,.T.);
#457=ORIENTED_EDGE('',*,*,#789,.T.);
#458=ORIENTED_EDGE('',*,*,#831,.F.);
#459=ORIENTED_EDGE('',*,*,#832,.T.);
#460=ORIENTED_EDGE('',*,*,#829,.T.);
#461=ORIENTED_EDGE('',*,*,#792,.T.);
#462=ORIENTED_EDGE('',*,*,#828,.F.);
#463=ORIENTED_EDGE('',*,*,#833,.T.);
#464=ORIENTED_EDGE('',*,*,#831,.T.);
#465=ORIENTED_EDGE('',*,*,#791,.F.);
#466=ORIENTED_EDGE('',*,*,#834,.T.);
#467=ORIENTED_EDGE('',*,*,#835,.T.);
#468=ORIENTED_EDGE('',*,*,#836,.T.);
#469=ORIENTED_EDGE('',*,*,#837,.T.);
#470=ORIENTED_EDGE('',*,*,#838,.F.);
#471=ORIENTED_EDGE('',*,*,#839,.T.);
#472=ORIENTED_EDGE('',*,*,#840,.T.);
#473=ORIENTED_EDGE('',*,*,#785,.T.);
#474=ORIENTED_EDGE('',*,*,#841,.F.);
#475=ORIENTED_EDGE('',*,*,#842,.T.);
#476=ORIENTED_EDGE('',*,*,#838,.T.);
#477=ORIENTED_EDGE('',*,*,#788,.T.);
#478=ORIENTED_EDGE('',*,*,#843,.F.);
#479=ORIENTED_EDGE('',*,*,#844,.T.);
#480=ORIENTED_EDGE('',*,*,#841,.T.);
#481=ORIENTED_EDGE('',*,*,#787,.F.);
#482=ORIENTED_EDGE('',*,*,#840,.F.);
#483=ORIENTED_EDGE('',*,*,#845,.T.);
#484=ORIENTED_EDGE('',*,*,#843,.T.);
#485=ORIENTED_EDGE('',*,*,#786,.F.);
#486=ORIENTED_EDGE('',*,*,#846,.T.);
#487=ORIENTED_EDGE('',*,*,#847,.T.);
#488=ORIENTED_EDGE('',*,*,#848,.T.);
#489=ORIENTED_EDGE('',*,*,#849,.T.);
#490=ORIENTED_EDGE('',*,*,#850,.F.);
#491=ORIENTED_EDGE('',*,*,#851,.T.);
#492=ORIENTED_EDGE('',*,*,#852,.T.);
#493=ORIENTED_EDGE('',*,*,#797,.F.);
#494=ORIENTED_EDGE('',*,*,#853,.F.);
#495=ORIENTED_EDGE('',*,*,#854,.T.);
#496=ORIENTED_EDGE('',*,*,#850,.T.);
#497=ORIENTED_EDGE('',*,*,#796,.F.);
#498=ORIENTED_EDGE('',*,*,#855,.F.);
#499=ORIENTED_EDGE('',*,*,#856,.T.);
#500=ORIENTED_EDGE('',*,*,#853,.T.);
#501=ORIENTED_EDGE('',*,*,#799,.T.);
#502=ORIENTED_EDGE('',*,*,#852,.F.);
#503=ORIENTED_EDGE('',*,*,#857,.T.);
#504=ORIENTED_EDGE('',*,*,#855,.T.);
#505=ORIENTED_EDGE('',*,*,#798,.T.);
#506=ORIENTED_EDGE('',*,*,#858,.T.);
#507=ORIENTED_EDGE('',*,*,#859,.T.);
#508=ORIENTED_EDGE('',*,*,#860,.T.);
#509=ORIENTED_EDGE('',*,*,#861,.T.);
#510=ORIENTED_EDGE('',*,*,#862,.F.);
#511=ORIENTED_EDGE('',*,*,#863,.T.);
#512=ORIENTED_EDGE('',*,*,#864,.T.);
#513=ORIENTED_EDGE('',*,*,#801,.F.);
#514=ORIENTED_EDGE('',*,*,#865,.F.);
#515=ORIENTED_EDGE('',*,*,#866,.T.);
#516=ORIENTED_EDGE('',*,*,#862,.T.);
#517=ORIENTED_EDGE('',*,*,#800,.F.);
#518=ORIENTED_EDGE('',*,*,#867,.F.);
#519=ORIENTED_EDGE('',*,*,#868,.T.);
#520=ORIENTED_EDGE('',*,*,#865,.T.);
#521=ORIENTED_EDGE('',*,*,#803,.T.);
#522=ORIENTED_EDGE('',*,*,#864,.F.);
#523=ORIENTED_EDGE('',*,*,#869,.T.);
#524=ORIENTED_EDGE('',*,*,#867,.T.);
#525=ORIENTED_EDGE('',*,*,#802,.T.);
#526=ORIENTED_EDGE('',*,*,#870,.T.);
#527=ORIENTED_EDGE('',*,*,#871,.T.);
#528=ORIENTED_EDGE('',*,*,#872,.T.);
#529=ORIENTED_EDGE('',*,*,#873,.T.);
#530=ORIENTED_EDGE('',*,*,#874,.F.);
#531=ORIENTED_EDGE('',*,*,#875,.T.);
#532=ORIENTED_EDGE('',*,*,#876,.T.);
#533=ORIENTED_EDGE('',*,*,#804,.T.);
#534=ORIENTED_EDGE('',*,*,#877,.F.);
#535=ORIENTED_EDGE('',*,*,#878,.T.);
#536=ORIENTED_EDGE('',*,*,#874,.T.);
#537=ORIENTED_EDGE('',*,*,#807,.T.);
#538=ORIENTED_EDGE('',*,*,#879,.F.);
#539=ORIENTED_EDGE('',*,*,#880,.T.);
#540=ORIENTED_EDGE('',*,*,#877,.T.);
#541=ORIENTED_EDGE('',*,*,#806,.F.);
#542=ORIENTED_EDGE('',*,*,#876,.F.);
#543=ORIENTED_EDGE('',*,*,#881,.T.);
#544=ORIENTED_EDGE('',*,*,#879,.T.);
#545=ORIENTED_EDGE('',*,*,#805,.F.);
#546=ORIENTED_EDGE('',*,*,#882,.T.);
#547=ORIENTED_EDGE('',*,*,#883,.T.);
#548=ORIENTED_EDGE('',*,*,#884,.T.);
#549=ORIENTED_EDGE('',*,*,#885,.T.);
#550=ORIENTED_EDGE('',*,*,#886,.F.);
#551=ORIENTED_EDGE('',*,*,#887,.T.);
#552=ORIENTED_EDGE('',*,*,#888,.T.);
#553=ORIENTED_EDGE('',*,*,#781,.T.);
#554=ORIENTED_EDGE('',*,*,#889,.F.);
#555=ORIENTED_EDGE('',*,*,#890,.T.);
#556=ORIENTED_EDGE('',*,*,#886,.T.);
#557=ORIENTED_EDGE('',*,*,#784,.T.);
#558=ORIENTED_EDGE('',*,*,#891,.F.);
#559=ORIENTED_EDGE('',*,*,#892,.T.);
#560=ORIENTED_EDGE('',*,*,#889,.T.);
#561=ORIENTED_EDGE('',*,*,#783,.F.);
#562=ORIENTED_EDGE('',*,*,#888,.F.);
#563=ORIENTED_EDGE('',*,*,#893,.T.);
#564=ORIENTED_EDGE('',*,*,#891,.T.);
#565=ORIENTED_EDGE('',*,*,#782,.F.);
#566=ORIENTED_EDGE('',*,*,#894,.T.);
#567=ORIENTED_EDGE('',*,*,#895,.T.);
#568=ORIENTED_EDGE('',*,*,#896,.T.);
#569=ORIENTED_EDGE('',*,*,#897,.T.);
#570=ORIENTED_EDGE('',*,*,#898,.F.);
#571=ORIENTED_EDGE('',*,*,#899,.T.);
#572=ORIENTED_EDGE('',*,*,#900,.T.);
#573=ORIENTED_EDGE('',*,*,#808,.T.);
#574=ORIENTED_EDGE('',*,*,#901,.F.);
#575=ORIENTED_EDGE('',*,*,#902,.T.);
#576=ORIENTED_EDGE('',*,*,#898,.T.);
#577=ORIENTED_EDGE('',*,*,#811,.T.);
#578=ORIENTED_EDGE('',*,*,#903,.F.);
#579=ORIENTED_EDGE('',*,*,#904,.T.);
#580=ORIENTED_EDGE('',*,*,#901,.T.);
#581=ORIENTED_EDGE('',*,*,#810,.F.);
#582=ORIENTED_EDGE('',*,*,#900,.F.);
#583=ORIENTED_EDGE('',*,*,#905,.T.);
#584=ORIENTED_EDGE('',*,*,#903,.T.);
#585=ORIENTED_EDGE('',*,*,#809,.F.);
#586=ORIENTED_EDGE('',*,*,#906,.T.);
#587=ORIENTED_EDGE('',*,*,#907,.T.);
#588=ORIENTED_EDGE('',*,*,#908,.T.);
#589=ORIENTED_EDGE('',*,*,#909,.T.);
#590=ORIENTED_EDGE('',*,*,#910,.F.);
#591=ORIENTED_EDGE('',*,*,#911,.T.);
#592=ORIENTED_EDGE('',*,*,#912,.T.);
#593=ORIENTED_EDGE('',*,*,#778,.F.);
#594=ORIENTED_EDGE('',*,*,#913,.F.);
#595=ORIENTED_EDGE('',*,*,#914,.T.);
#596=ORIENTED_EDGE('',*,*,#910,.T.);
#597=ORIENTED_EDGE('',*,*,#777,.T.);
#598=ORIENTED_EDGE('',*,*,#915,.F.);
#599=ORIENTED_EDGE('',*,*,#916,.T.);
#600=ORIENTED_EDGE('',*,*,#913,.T.);
#601=ORIENTED_EDGE('',*,*,#780,.T.);
#602=ORIENTED_EDGE('',*,*,#912,.F.);
#603=ORIENTED_EDGE('',*,*,#917,.T.);
#604=ORIENTED_EDGE('',*,*,#915,.T.);
#605=ORIENTED_EDGE('',*,*,#779,.F.);
#606=ORIENTED_EDGE('',*,*,#918,.T.);
#607=ORIENTED_EDGE('',*,*,#919,.T.);
#608=ORIENTED_EDGE('',*,*,#920,.T.);
#609=ORIENTED_EDGE('',*,*,#921,.T.);
#610=ORIENTED_EDGE('',*,*,#922,.F.);
#611=ORIENTED_EDGE('',*,*,#849,.F.);
#612=ORIENTED_EDGE('',*,*,#923,.F.);
#613=ORIENTED_EDGE('',*,*,#842,.F.);
#614=ORIENTED_EDGE('',*,*,#923,.T.);
#615=ORIENTED_EDGE('',*,*,#848,.F.);
#616=ORIENTED_EDGE('',*,*,#924,.F.);
#617=ORIENTED_EDGE('',*,*,#839,.F.);
#618=ORIENTED_EDGE('',*,*,#922,.T.);
#619=ORIENTED_EDGE('',*,*,#844,.F.);
#620=ORIENTED_EDGE('',*,*,#925,.F.);
#621=ORIENTED_EDGE('',*,*,#846,.F.);
#622=ORIENTED_EDGE('',*,*,#924,.T.);
#623=ORIENTED_EDGE('',*,*,#847,.F.);
#624=ORIENTED_EDGE('',*,*,#925,.T.);
#625=ORIENTED_EDGE('',*,*,#845,.F.);
#626=ORIENTED_EDGE('',*,*,#926,.F.);
#627=ORIENTED_EDGE('',*,*,#851,.F.);
#628=ORIENTED_EDGE('',*,*,#927,.F.);
#629=ORIENTED_EDGE('',*,*,#861,.F.);
#630=ORIENTED_EDGE('',*,*,#927,.T.);
#631=ORIENTED_EDGE('',*,*,#854,.F.);
#632=ORIENTED_EDGE('',*,*,#928,.F.);
#633=ORIENTED_EDGE('',*,*,#858,.F.);
#634=ORIENTED_EDGE('',*,*,#926,.T.);
#635=ORIENTED_EDGE('',*,*,#860,.F.);
#636=ORIENTED_EDGE('',*,*,#929,.F.);
#637=ORIENTED_EDGE('',*,*,#857,.F.);
#638=ORIENTED_EDGE('',*,*,#928,.T.);
#639=ORIENTED_EDGE('',*,*,#856,.F.);
#640=ORIENTED_EDGE('',*,*,#929,.T.);
#641=ORIENTED_EDGE('',*,*,#859,.F.);
#642=ORIENTED_EDGE('',*,*,#930,.F.);
#643=ORIENTED_EDGE('',*,*,#863,.F.);
#644=ORIENTED_EDGE('',*,*,#931,.F.);
#645=ORIENTED_EDGE('',*,*,#873,.F.);
#646=ORIENTED_EDGE('',*,*,#931,.T.);
#647=ORIENTED_EDGE('',*,*,#866,.F.);
#648=ORIENTED_EDGE('',*,*,#932,.F.);
#649=ORIENTED_EDGE('',*,*,#870,.F.);
#650=ORIENTED_EDGE('',*,*,#930,.T.);
#651=ORIENTED_EDGE('',*,*,#872,.F.);
#652=ORIENTED_EDGE('',*,*,#933,.F.);
#653=ORIENTED_EDGE('',*,*,#869,.F.);
#654=ORIENTED_EDGE('',*,*,#932,.T.);
#655=ORIENTED_EDGE('',*,*,#868,.F.);
#656=ORIENTED_EDGE('',*,*,#933,.T.);
#657=ORIENTED_EDGE('',*,*,#871,.F.);
#658=ORIENTED_EDGE('',*,*,#934,.F.);
#659=ORIENTED_EDGE('',*,*,#921,.F.);
#660=ORIENTED_EDGE('',*,*,#935,.F.);
#661=ORIENTED_EDGE('',*,*,#914,.F.);
#662=ORIENTED_EDGE('',*,*,#935,.T.);
#663=ORIENTED_EDGE('',*,*,#920,.F.);
#664=ORIENTED_EDGE('',*,*,#936,.F.);
#665=ORIENTED_EDGE('',*,*,#911,.F.);
#666=ORIENTED_EDGE('',*,*,#934,.T.);
#667=ORIENTED_EDGE('',*,*,#916,.F.);
#668=ORIENTED_EDGE('',*,*,#937,.F.);
#669=ORIENTED_EDGE('',*,*,#918,.F.);
#670=ORIENTED_EDGE('',*,*,#936,.T.);
#671=ORIENTED_EDGE('',*,*,#919,.F.);
#672=ORIENTED_EDGE('',*,*,#937,.T.);
#673=ORIENTED_EDGE('',*,*,#917,.F.);
#674=ORIENTED_EDGE('',*,*,#938,.F.);
#675=ORIENTED_EDGE('',*,*,#909,.F.);
#676=ORIENTED_EDGE('',*,*,#939,.F.);
#677=ORIENTED_EDGE('',*,*,#902,.F.);
#678=ORIENTED_EDGE('',*,*,#939,.T.);
#679=ORIENTED_EDGE('',*,*,#908,.F.);
#680=ORIENTED_EDGE('',*,*,#940,.F.);
#681=ORIENTED_EDGE('',*,*,#899,.F.);
#682=ORIENTED_EDGE('',*,*,#938,.T.);
#683=ORIENTED_EDGE('',*,*,#904,.F.);
#684=ORIENTED_EDGE('',*,*,#941,.F.);
#685=ORIENTED_EDGE('',*,*,#906,.F.);
#686=ORIENTED_EDGE('',*,*,#940,.T.);
#687=ORIENTED_EDGE('',*,*,#907,.F.);
#688=ORIENTED_EDGE('',*,*,#941,.T.);
#689=ORIENTED_EDGE('',*,*,#905,.F.);
#690=ORIENTED_EDGE('',*,*,#942,.F.);
#691=ORIENTED_EDGE('',*,*,#897,.F.);
#692=ORIENTED_EDGE('',*,*,#943,.F.);
#693=ORIENTED_EDGE('',*,*,#890,.F.);
#694=ORIENTED_EDGE('',*,*,#943,.T.);
#695=ORIENTED_EDGE('',*,*,#896,.F.);
#696=ORIENTED_EDGE('',*,*,#944,.F.);
#697=ORIENTED_EDGE('',*,*,#887,.F.);
#698=ORIENTED_EDGE('',*,*,#942,.T.);
#699=ORIENTED_EDGE('',*,*,#892,.F.);
#700=ORIENTED_EDGE('',*,*,#945,.F.);
#701=ORIENTED_EDGE('',*,*,#894,.F.);
#702=ORIENTED_EDGE('',*,*,#944,.T.);
#703=ORIENTED_EDGE('',*,*,#895,.F.);
#704=ORIENTED_EDGE('',*,*,#945,.T.);
#705=ORIENTED_EDGE('',*,*,#893,.F.);
#706=ORIENTED_EDGE('',*,*,#946,.F.);
#707=ORIENTED_EDGE('',*,*,#885,.F.);
#708=ORIENTED_EDGE('',*,*,#947,.F.);
#709=ORIENTED_EDGE('',*,*,#878,.F.);
#710=ORIENTED_EDGE('',*,*,#947,.T.);
#711=ORIENTED_EDGE('',*,*,#884,.F.);
#712=ORIENTED_EDGE('',*,*,#948,.F.);
#713=ORIENTED_EDGE('',*,*,#875,.F.);
#714=ORIENTED_EDGE('',*,*,#946,.T.);
#715=ORIENTED_EDGE('',*,*,#880,.F.);
#716=ORIENTED_EDGE('',*,*,#949,.F.);
#717=ORIENTED_EDGE('',*,*,#882,.F.);
#718=ORIENTED_EDGE('',*,*,#948,.T.);
#719=ORIENTED_EDGE('',*,*,#883,.F.);
#720=ORIENTED_EDGE('',*,*,#949,.T.);
#721=ORIENTED_EDGE('',*,*,#881,.F.);
#722=ORIENTED_EDGE('',*,*,#950,.F.);
#723=ORIENTED_EDGE('',*,*,#837,.F.);
#724=ORIENTED_EDGE('',*,*,#951,.F.);
#725=ORIENTED_EDGE('',*,*,#830,.F.);
#726=ORIENTED_EDGE('',*,*,#951,.T.);
#727=ORIENTED_EDGE('',*,*,#836,.F.);
#728=ORIENTED_EDGE('',*,*,#952,.F.);
#729=ORIENTED_EDGE('',*,*,#827,.F.);
#730=ORIENTED_EDGE('',*,*,#950,.T.);
#731=ORIENTED_EDGE('',*,*,#832,.F.);
#732=ORIENTED_EDGE('',*,*,#953,.F.);
#733=ORIENTED_EDGE('',*,*,#834,.F.);
#734=ORIENTED_EDGE('',*,*,#952,.T.);
#735=ORIENTED_EDGE('',*,*,#835,.F.);
#736=ORIENTED_EDGE('',*,*,#953,.T.);
#737=ORIENTED_EDGE('',*,*,#833,.F.);
#738=ORIENTED_EDGE('',*,*,#954,.T.);
#739=ORIENTED_EDGE('',*,*,#776,.F.);
#740=ORIENTED_EDGE('',*,*,#814,.T.);
#741=ORIENTED_EDGE('',*,*,#955,.T.);
#742=ORIENTED_EDGE('',*,*,#822,.F.);
#743=ORIENTED_EDGE('',*,*,#821,.F.);
#744=ORIENTED_EDGE('',*,*,#956,.T.);
#745=ORIENTED_EDGE('',*,*,#773,.T.);
#746=ORIENTED_EDGE('',*,*,#825,.F.);
#747=ORIENTED_EDGE('',*,*,#957,.T.);
#748=ORIENTED_EDGE('',*,*,#818,.F.);
#749=ORIENTED_EDGE('',*,*,#769,.T.);
#750=ORIENTED_EDGE('',*,*,#958,.T.);
#751=ORIENTED_EDGE('',*,*,#816,.T.);
#752=ORIENTED_EDGE('',*,*,#955,.F.);
#753=ORIENTED_EDGE('',*,*,#813,.F.);
#754=ORIENTED_EDGE('',*,*,#812,.F.);
#755=ORIENTED_EDGE('',*,*,#958,.F.);
#756=ORIENTED_EDGE('',*,*,#775,.F.);
#757=ORIENTED_EDGE('',*,*,#774,.F.);
#758=ORIENTED_EDGE('',*,*,#956,.F.);
#759=ORIENTED_EDGE('',*,*,#820,.F.);
#760=ORIENTED_EDGE('',*,*,#819,.F.);
#761=ORIENTED_EDGE('',*,*,#957,.F.);
#762=ORIENTED_EDGE('',*,*,#824,.F.);
#763=ORIENTED_EDGE('',*,*,#823,.F.);
#764=ORIENTED_EDGE('',*,*,#768,.F.);
#765=ORIENTED_EDGE('',*,*,#767,.F.);
#766=ORIENTED_EDGE('',*,*,#954,.F.);
#767=EDGE_CURVE('',#959,#959,#1079,.F.);
#768=EDGE_CURVE('',#960,#960,#1080,.T.);
#769=EDGE_CURVE('',#961,#962,#31,.T.);
#770=EDGE_CURVE('',#963,#961,#32,.T.);
#771=EDGE_CURVE('',#963,#964,#33,.T.);
#772=EDGE_CURVE('',#964,#965,#34,.T.);
#773=EDGE_CURVE('',#966,#965,#35,.T.);
#774=EDGE_CURVE('',#966,#967,#23,.T.);
#775=EDGE_CURVE('',#967,#962,#24,.T.);
#776=EDGE_CURVE('',#968,#968,#1081,.T.);
#777=EDGE_CURVE('',#969,#970,#36,.T.);
#778=EDGE_CURVE('',#969,#971,#37,.T.);
#779=EDGE_CURVE('',#971,#972,#38,.T.);
#780=EDGE_CURVE('',#970,#972,#39,.T.);
#781=EDGE_CURVE('',#973,#974,#40,.T.);
#782=EDGE_CURVE('',#973,#975,#41,.T.);
#783=EDGE_CURVE('',#975,#976,#42,.T.);
#784=EDGE_CURVE('',#974,#976,#43,.T.);
#785=EDGE_CURVE('',#977,#978,#44,.T.);
#786=EDGE_CURVE('',#977,#979,#45,.T.);
#787=EDGE_CURVE('',#979,#980,#46,.T.);
#788=EDGE_CURVE('',#978,#980,#47,.T.);
#789=EDGE_CURVE('',#981,#982,#48,.T.);
#790=EDGE_CURVE('',#981,#983,#49,.T.);
#791=EDGE_CURVE('',#983,#984,#50,.T.);
#792=EDGE_CURVE('',#982,#984,#51,.T.);
#793=EDGE_CURVE('',#985,#963,#52,.T.);
#794=EDGE_CURVE('',#985,#986,#53,.T.);
#795=EDGE_CURVE('',#986,#964,#54,.T.);
#796=EDGE_CURVE('',#987,#988,#55,.T.);
#797=EDGE_CURVE('',#988,#989,#56,.T.);
#798=EDGE_CURVE('',#990,#989,#57,.T.);
#799=EDGE_CURVE('',#987,#990,#58,.T.);
#800=EDGE_CURVE('',#991,#992,#59,.T.);
#801=EDGE_CURVE('',#992,#993,#60,.T.);
#802=EDGE_CURVE('',#994,#993,#61,.T.);
#803=EDGE_CURVE('',#991,#994,#62,.T.);
#804=EDGE_CURVE('',#995,#996,#63,.T.);
#805=EDGE_CURVE('',#995,#997,#64,.T.);
#806=EDGE_CURVE('',#997,#998,#65,.T.);
#807=EDGE_CURVE('',#996,#998,#66,.T.);
#808=EDGE_CURVE('',#999,#1000,#67,.T.);
#809=EDGE_CURVE('',#999,#1001,#68,.T.);
#810=EDGE_CURVE('',#1001,#1002,#69,.T.);
#811=EDGE_CURVE('',#1000,#1002,#70,.T.);
#812=EDGE_CURVE('',#1003,#1004,#25,.T.);
#813=EDGE_CURVE('',#1004,#1005,#26,.T.);
#814=EDGE_CURVE('',#1006,#1005,#71,.T.);
#815=EDGE_CURVE('',#985,#1006,#72,.T.);
#816=EDGE_CURVE('',#1003,#961,#73,.T.);
#817=EDGE_CURVE('',#986,#1007,#74,.T.);
#818=EDGE_CURVE('',#1007,#1008,#75,.T.);
#819=EDGE_CURVE('',#1008,#1009,#27,.T.);
#820=EDGE_CURVE('',#1009,#1010,#28,.T.);
#821=EDGE_CURVE('',#1010,#965,#76,.T.);
#822=EDGE_CURVE('',#1006,#1011,#77,.T.);
#823=EDGE_CURVE('',#1011,#1012,#29,.T.);
#824=EDGE_CURVE('',#1012,#1013,#30,.T.);
#825=EDGE_CURVE('',#1013,#1007,#78,.T.);
#826=EDGE_CURVE('',#1014,#981,#79,.T.);
#827=EDGE_CURVE('',#1014,#1015,#80,.T.);
#828=EDGE_CURVE('',#1015,#983,#81,.T.);
#829=EDGE_CURVE('',#1016,#982,#82,.T.);
#830=EDGE_CURVE('',#1016,#1014,#83,.T.);
#831=EDGE_CURVE('',#1017,#984,#84,.T.);
#832=EDGE_CURVE('',#1017,#1016,#85,.T.);
#833=EDGE_CURVE('',#1015,#1017,#86,.T.);
#834=EDGE_CURVE('',#1018,#1019,#87,.T.);
#835=EDGE_CURVE('',#1019,#1020,#88,.T.);
#836=EDGE_CURVE('',#1020,#1021,#89,.T.);
#837=EDGE_CURVE('',#1021,#1018,#90,.T.);
#838=EDGE_CURVE('',#1022,#978,#91,.T.);
#839=EDGE_CURVE('',#1022,#1023,#92,.T.);
#840=EDGE_CURVE('',#1023,#977,#93,.T.);
#841=EDGE_CURVE('',#1024,#980,#94,.T.);
#842=EDGE_CURVE('',#1024,#1022,#95,.T.);
#843=EDGE_CURVE('',#1025,#979,#96,.T.);
#844=EDGE_CURVE('',#1025,#1024,#97,.T.);
#845=EDGE_CURVE('',#1023,#1025,#98,.T.);
#846=EDGE_CURVE('',#1026,#1027,#99,.T.);
#847=EDGE_CURVE('',#1027,#1028,#100,.T.);
#848=EDGE_CURVE('',#1028,#1029,#101,.T.);
#849=EDGE_CURVE('',#1029,#1026,#102,.T.);
#850=EDGE_CURVE('',#1030,#988,#103,.T.);
#851=EDGE_CURVE('',#1030,#1031,#104,.T.);
#852=EDGE_CURVE('',#1031,#989,#105,.T.);
#853=EDGE_CURVE('',#1032,#987,#106,.T.);
#854=EDGE_CURVE('',#1032,#1030,#107,.T.);
#855=EDGE_CURVE('',#1033,#990,#108,.T.);
#856=EDGE_CURVE('',#1033,#1032,#109,.T.);
#857=EDGE_CURVE('',#1031,#1033,#110,.T.);
#858=EDGE_CURVE('',#1034,#1035,#111,.T.);
#859=EDGE_CURVE('',#1035,#1036,#112,.T.);
#860=EDGE_CURVE('',#1036,#1037,#113,.T.);
#861=EDGE_CURVE('',#1037,#1034,#114,.T.);
#862=EDGE_CURVE('',#1038,#992,#115,.T.);
#863=EDGE_CURVE('',#1038,#1039,#116,.T.);
#864=EDGE_CURVE('',#1039,#993,#117,.T.);
#865=EDGE_CURVE('',#1040,#991,#118,.T.);
#866=EDGE_CURVE('',#1040,#1038,#119,.T.);
#867=EDGE_CURVE('',#1041,#994,#120,.T.);
#868=EDGE_CURVE('',#1041,#1040,#121,.T.);
#869=EDGE_CURVE('',#1039,#1041,#122,.T.);
#870=EDGE_CURVE('',#1042,#1043,#123,.T.);
#871=EDGE_CURVE('',#1043,#1044,#124,.T.);
#872=EDGE_CURVE('',#1044,#1045,#125,.T.);
#873=EDGE_CURVE('',#1045,#1042,#126,.T.);
#874=EDGE_CURVE('',#1046,#996,#127,.T.);
#875=EDGE_CURVE('',#1046,#1047,#128,.T.);
#876=EDGE_CURVE('',#1047,#995,#129,.T.);
#877=EDGE_CURVE('',#1048,#998,#130,.T.);
#878=EDGE_CURVE('',#1048,#1046,#131,.T.);
#879=EDGE_CURVE('',#1049,#997,#132,.T.);
#880=EDGE_CURVE('',#1049,#1048,#133,.T.);
#881=EDGE_CURVE('',#1047,#1049,#134,.T.);
#882=EDGE_CURVE('',#1050,#1051,#135,.T.);
#883=EDGE_CURVE('',#1051,#1052,#136,.T.);
#884=EDGE_CURVE('',#1052,#1053,#137,.T.);
#885=EDGE_CURVE('',#1053,#1050,#138,.T.);
#886=EDGE_CURVE('',#1054,#974,#139,.T.);
#887=EDGE_CURVE('',#1054,#1055,#140,.T.);
#888=EDGE_CURVE('',#1055,#973,#141,.T.);
#889=EDGE_CURVE('',#1056,#976,#142,.T.);
#890=EDGE_CURVE('',#1056,#1054,#143,.T.);
#891=EDGE_CURVE('',#1057,#975,#144,.T.);
#892=EDGE_CURVE('',#1057,#1056,#145,.T.);
#893=EDGE_CURVE('',#1055,#1057,#146,.T.);
#894=EDGE_CURVE('',#1058,#1059,#147,.T.);
#895=EDGE_CURVE('',#1059,#1060,#148,.T.);
#896=EDGE_CURVE('',#1060,#1061,#149,.T.);
#897=EDGE_CURVE('',#1061,#1058,#150,.T.);
#898=EDGE_CURVE('',#1062,#1000,#151,.T.);
#899=EDGE_CURVE('',#1062,#1063,#152,.T.);
#900=EDGE_CURVE('',#1063,#999,#153,.T.);
#901=EDGE_CURVE('',#1064,#1002,#154,.T.);
#902=EDGE_CURVE('',#1064,#1062,#155,.T.);
#903=EDGE_CURVE('',#1065,#1001,#156,.T.);
#904=EDGE_CURVE('',#1065,#1064,#157,.T.);
#905=EDGE_CURVE('',#1063,#1065,#158,.T.);
#906=EDGE_CURVE('',#1066,#1067,#159,.T.);
#907=EDGE_CURVE('',#1067,#1068,#160,.T.);
#908=EDGE_CURVE('',#1068,#1069,#161,.T.);
#909=EDGE_CURVE('',#1069,#1066,#162,.T.);
#910=EDGE_CURVE('',#1070,#969,#163,.T.);
#911=EDGE_CURVE('',#1070,#1071,#164,.T.);
#912=EDGE_CURVE('',#1071,#971,#165,.T.);
#913=EDGE_CURVE('',#1072,#970,#166,.T.);
#914=EDGE_CURVE('',#1072,#1070,#167,.T.);
#915=EDGE_CURVE('',#1073,#972,#168,.T.);
#916=EDGE_CURVE('',#1073,#1072,#169,.T.);
#917=EDGE_CURVE('',#1071,#1073,#170,.T.);
#918=EDGE_CURVE('',#1074,#1075,#171,.T.);
#919=EDGE_CURVE('',#1075,#1076,#172,.T.);
#920=EDGE_CURVE('',#1076,#1077,#173,.T.);
#921=EDGE_CURVE('',#1077,#1074,#174,.T.);
#922=EDGE_CURVE('',#1026,#1024,#175,.F.);
#923=EDGE_CURVE('',#1022,#1029,#176,.F.);
#924=EDGE_CURVE('',#1023,#1028,#177,.T.);
#925=EDGE_CURVE('',#1027,#1025,#178,.F.);
#926=EDGE_CURVE('',#1031,#1037,#179,.F.);
#927=EDGE_CURVE('',#1034,#1030,#180,.F.);
#928=EDGE_CURVE('',#1035,#1032,#181,.T.);
#929=EDGE_CURVE('',#1033,#1036,#182,.F.);
#930=EDGE_CURVE('',#1039,#1045,#183,.T.);
#931=EDGE_CURVE('',#1042,#1038,#184,.T.);
#932=EDGE_CURVE('',#1043,#1040,#185,.T.);
#933=EDGE_CURVE('',#1041,#1044,#186,.F.);
#934=EDGE_CURVE('',#1074,#1072,#187,.F.);
#935=EDGE_CURVE('',#1070,#1077,#188,.F.);
#936=EDGE_CURVE('',#1071,#1076,#189,.F.);
#937=EDGE_CURVE('',#1075,#1073,#190,.T.);
#938=EDGE_CURVE('',#1066,#1064,#191,.T.);
#939=EDGE_CURVE('',#1062,#1069,#192,.T.);
#940=EDGE_CURVE('',#1063,#1068,#193,.T.);
#941=EDGE_CURVE('',#1067,#1065,#194,.F.);
#942=EDGE_CURVE('',#1058,#1056,#195,.T.);
#943=EDGE_CURVE('',#1054,#1061,#196,.T.);
#944=EDGE_CURVE('',#1055,#1060,#197,.T.);
#945=EDGE_CURVE('',#1059,#1057,#198,.F.);
#946=EDGE_CURVE('',#1050,#1048,#199,.T.);
#947=EDGE_CURVE('',#1046,#1053,#200,.T.);
#948=EDGE_CURVE('',#1047,#1052,#201,.T.);
#949=EDGE_CURVE('',#1051,#1049,#202,.F.);
#950=EDGE_CURVE('',#1018,#1016,#203,.T.);
#951=EDGE_CURVE('',#1014,#1021,#204,.T.);
#952=EDGE_CURVE('',#1015,#1020,#205,.F.);
#953=EDGE_CURVE('',#1019,#1017,#206,.T.);
#954=EDGE_CURVE('',#1078,#1078,#1082,.T.);
#955=EDGE_CURVE('',#1005,#1011,#1083,.F.);
#956=EDGE_CURVE('',#1010,#966,#1084,.F.);
#957=EDGE_CURVE('',#1013,#1008,#1085,.F.);
#958=EDGE_CURVE('',#962,#1003,#1086,.F.);
#959=VERTEX_POINT('',#1923);
#960=VERTEX_POINT('',#1925);
#961=VERTEX_POINT('',#1928);
#962=VERTEX_POINT('',#1929);
#963=VERTEX_POINT('',#1931);
#964=VERTEX_POINT('',#1933);
#965=VERTEX_POINT('',#1935);
#966=VERTEX_POINT('',#1937);
#967=VERTEX_POINT('',#1943);
#968=VERTEX_POINT('',#1951);
#969=VERTEX_POINT('',#1953);
#970=VERTEX_POINT('',#1954);
#971=VERTEX_POINT('',#1956);
#972=VERTEX_POINT('',#1958);
#973=VERTEX_POINT('',#1961);
#974=VERTEX_POINT('',#1962);
#975=VERTEX_POINT('',#1964);
#976=VERTEX_POINT('',#1966);
#977=VERTEX_POINT('',#1969);
#978=VERTEX_POINT('',#1970);
#979=VERTEX_POINT('',#1972);
#980=VERTEX_POINT('',#1974);
#981=VERTEX_POINT('',#1977);
#982=VERTEX_POINT('',#1978);
#983=VERTEX_POINT('',#1980);
#984=VERTEX_POINT('',#1982);
#985=VERTEX_POINT('',#1985);
#986=VERTEX_POINT('',#1987);
#987=VERTEX_POINT('',#1990);
#988=VERTEX_POINT('',#1991);
#989=VERTEX_POINT('',#1993);
#990=VERTEX_POINT('',#1995);
#991=VERTEX_POINT('',#1998);
#992=VERTEX_POINT('',#1999);
#993=VERTEX_POINT('',#2001);
#994=VERTEX_POINT('',#2003);
#995=VERTEX_POINT('',#2006);
#996=VERTEX_POINT('',#2007);
#997=VERTEX_POINT('',#2009);
#998=VERTEX_POINT('',#2011);
#999=VERTEX_POINT('',#2014);
#1000=VERTEX_POINT('',#2015);
#1001=VERTEX_POINT('',#2017);
#1002=VERTEX_POINT('',#2019);
#1003=VERTEX_POINT('',#2027);
#1004=VERTEX_POINT('',#2028);
#1005=VERTEX_POINT('',#2034);
#1006=VERTEX_POINT('',#2036);
#1007=VERTEX_POINT('',#2041);
#1008=VERTEX_POINT('',#2043);
#1009=VERTEX_POINT('',#2049);
#1010=VERTEX_POINT('',#2055);
#1011=VERTEX_POINT('',#2059);
#1012=VERTEX_POINT('',#2065);
#1013=VERTEX_POINT('',#2071);
#1014=VERTEX_POINT('',#2075);
#1015=VERTEX_POINT('',#2077);
#1016=VERTEX_POINT('',#2081);
#1017=VERTEX_POINT('',#2085);
#1018=VERTEX_POINT('',#2091);
#1019=VERTEX_POINT('',#2092);
#1020=VERTEX_POINT('',#2094);
#1021=VERTEX_POINT('',#2096);
#1022=VERTEX_POINT('',#2100);
#1023=VERTEX_POINT('',#2102);
#1024=VERTEX_POINT('',#2106);
#1025=VERTEX_POINT('',#2110);
#1026=VERTEX_POINT('',#2116);
#1027=VERTEX_POINT('',#2117);
#1028=VERTEX_POINT('',#2119);
#1029=VERTEX_POINT('',#2121);
#1030=VERTEX_POINT('',#2125);
#1031=VERTEX_POINT('',#2127);
#1032=VERTEX_POINT('',#2131);
#1033=VERTEX_POINT('',#2135);
#1034=VERTEX_POINT('',#2141);
#1035=VERTEX_POINT('',#2142);
#1036=VERTEX_POINT('',#2144);
#1037=VERTEX_POINT('',#2146);
#1038=VERTEX_POINT('',#2150);
#1039=VERTEX_POINT('',#2152);
#1040=VERTEX_POINT('',#2156);
#1041=VERTEX_POINT('',#2160);
#1042=VERTEX_POINT('',#2166);
#1043=VERTEX_POINT('',#2167);
#1044=VERTEX_POINT('',#2169);
#1045=VERTEX_POINT('',#2171);
#1046=VERTEX_POINT('',#2175);
#1047=VERTEX_POINT('',#2177);
#1048=VERTEX_POINT('',#2181);
#1049=VERTEX_POINT('',#2185);
#1050=VERTEX_POINT('',#2191);
#1051=VERTEX_POINT('',#2192);
#1052=VERTEX_POINT('',#2194);
#1053=VERTEX_POINT('',#2196);
#1054=VERTEX_POINT('',#2200);
#1055=VERTEX_POINT('',#2202);
#1056=VERTEX_POINT('',#2206);
#1057=VERTEX_POINT('',#2210);
#1058=VERTEX_POINT('',#2216);
#1059=VERTEX_POINT('',#2217);
#1060=VERTEX_POINT('',#2219);
#1061=VERTEX_POINT('',#2221);
#1062=VERTEX_POINT('',#2225);
#1063=VERTEX_POINT('',#2227);
#1064=VERTEX_POINT('',#2231);
#1065=VERTEX_POINT('',#2235);
#1066=VERTEX_POINT('',#2241);
#1067=VERTEX_POINT('',#2242);
#1068=VERTEX_POINT('',#2244);
#1069=VERTEX_POINT('',#2246);
#1070=VERTEX_POINT('',#2250);
#1071=VERTEX_POINT('',#2252);
#1072=VERTEX_POINT('',#2256);
#1073=VERTEX_POINT('',#2260);
#1074=VERTEX_POINT('',#2266);
#1075=VERTEX_POINT('',#2267);
#1076=VERTEX_POINT('',#2269);
#1077=VERTEX_POINT('',#2271);
#1078=VERTEX_POINT('',#2339);
#1079=CIRCLE('',#1464,0.0027);
#1080=CIRCLE('',#1465,0.00445);
#1081=CIRCLE('',#1468,0.0025);
#1082=CIRCLE('',#1545,0.0025);
#1083=CIRCLE('',#1547,0.00635);
#1084=CIRCLE('',#1549,0.00635);
#1085=CIRCLE('',#1551,0.00635);
#1086=CIRCLE('',#1553,0.00635);
#1087=EDGE_LOOP('',(#383));
#1088=EDGE_LOOP('',(#384));
#1089=EDGE_LOOP('',(#385,#386,#387,#388,#389,#390,#391));
#1090=EDGE_LOOP('',(#392));
#1091=EDGE_LOOP('',(#393,#394,#395,#396));
#1092=EDGE_LOOP('',(#397,#398,#399,#400));
#1093=EDGE_LOOP('',(#401,#402,#403,#404));
#1094=EDGE_LOOP('',(#405,#406,#407,#408));
#1095=EDGE_LOOP('',(#409,#410,#411,#412));
#1096=EDGE_LOOP('',(#413,#414,#415,#416));
#1097=EDGE_LOOP('',(#417,#418,#419,#420));
#1098=EDGE_LOOP('',(#421,#422,#423,#424));
#1099=EDGE_LOOP('',(#425,#426,#427,#428));
#1100=EDGE_LOOP('',(#429,#430,#431,#432,#433,#434,#435));
#1101=EDGE_LOOP('',(#436,#437,#438,#439,#440,#441,#442));
#1102=EDGE_LOOP('',(#443,#444,#445,#446,#447,#448,#449));
#1103=EDGE_LOOP('',(#450,#451,#452,#453));
#1104=EDGE_LOOP('',(#454,#455,#456,#457));
#1105=EDGE_LOOP('',(#458,#459,#460,#461));
#1106=EDGE_LOOP('',(#462,#463,#464,#465));
#1107=EDGE_LOOP('',(#466,#467,#468,#469));
#1108=EDGE_LOOP('',(#470,#471,#472,#473));
#1109=EDGE_LOOP('',(#474,#475,#476,#477));
#1110=EDGE_LOOP('',(#478,#479,#480,#481));
#1111=EDGE_LOOP('',(#482,#483,#484,#485));
#1112=EDGE_LOOP('',(#486,#487,#488,#489));
#1113=EDGE_LOOP('',(#490,#491,#492,#493));
#1114=EDGE_LOOP('',(#494,#495,#496,#497));
#1115=EDGE_LOOP('',(#498,#499,#500,#501));
#1116=EDGE_LOOP('',(#502,#503,#504,#505));
#1117=EDGE_LOOP('',(#506,#507,#508,#509));
#1118=EDGE_LOOP('',(#510,#511,#512,#513));
#1119=EDGE_LOOP('',(#514,#515,#516,#517));
#1120=EDGE_LOOP('',(#518,#519,#520,#521));
#1121=EDGE_LOOP('',(#522,#523,#524,#525));
#1122=EDGE_LOOP('',(#526,#527,#528,#529));
#1123=EDGE_LOOP('',(#530,#531,#532,#533));
#1124=EDGE_LOOP('',(#534,#535,#536,#537));
#1125=EDGE_LOOP('',(#538,#539,#540,#541));
#1126=EDGE_LOOP('',(#542,#543,#544,#545));
#1127=EDGE_LOOP('',(#546,#547,#548,#549));
#1128=EDGE_LOOP('',(#550,#551,#552,#553));
#1129=EDGE_LOOP('',(#554,#555,#556,#557));
#1130=EDGE_LOOP('',(#558,#559,#560,#561));
#1131=EDGE_LOOP('',(#562,#563,#564,#565));
#1132=EDGE_LOOP('',(#566,#567,#568,#569));
#1133=EDGE_LOOP('',(#570,#571,#572,#573));
#1134=EDGE_LOOP('',(#574,#575,#576,#577));
#1135=EDGE_LOOP('',(#578,#579,#580,#581));
#1136=EDGE_LOOP('',(#582,#583,#584,#585));
#1137=EDGE_LOOP('',(#586,#587,#588,#589));
#1138=EDGE_LOOP('',(#590,#591,#592,#593));
#1139=EDGE_LOOP('',(#594,#595,#596,#597));
#1140=EDGE_LOOP('',(#598,#599,#600,#601));
#1141=EDGE_LOOP('',(#602,#603,#604,#605));
#1142=EDGE_LOOP('',(#606,#607,#608,#609));
#1143=EDGE_LOOP('',(#610,#611,#612,#613));
#1144=EDGE_LOOP('',(#614,#615,#616,#617));
#1145=EDGE_LOOP('',(#618,#619,#620,#621));
#1146=EDGE_LOOP('',(#622,#623,#624,#625));
#1147=EDGE_LOOP('',(#626,#627,#628,#629));
#1148=EDGE_LOOP('',(#630,#631,#632,#633));
#1149=EDGE_LOOP('',(#634,#635,#636,#637));
#1150=EDGE_LOOP('',(#638,#639,#640,#641));
#1151=EDGE_LOOP('',(#642,#643,#644,#645));
#1152=EDGE_LOOP('',(#646,#647,#648,#649));
#1153=EDGE_LOOP('',(#650,#651,#652,#653));
#1154=EDGE_LOOP('',(#654,#655,#656,#657));
#1155=EDGE_LOOP('',(#658,#659,#660,#661));
#1156=EDGE_LOOP('',(#662,#663,#664,#665));
#1157=EDGE_LOOP('',(#666,#667,#668,#669));
#1158=EDGE_LOOP('',(#670,#671,#672,#673));
#1159=EDGE_LOOP('',(#674,#675,#676,#677));
#1160=EDGE_LOOP('',(#678,#679,#680,#681));
#1161=EDGE_LOOP('',(#682,#683,#684,#685));
#1162=EDGE_LOOP('',(#686,#687,#688,#689));
#1163=EDGE_LOOP('',(#690,#691,#692,#693));
#1164=EDGE_LOOP('',(#694,#695,#696,#697));
#1165=EDGE_LOOP('',(#698,#699,#700,#701));
#1166=EDGE_LOOP('',(#702,#703,#704,#705));
#1167=EDGE_LOOP('',(#706,#707,#708,#709));
#1168=EDGE_LOOP('',(#710,#711,#712,#713));
#1169=EDGE_LOOP('',(#714,#715,#716,#717));
#1170=EDGE_LOOP('',(#718,#719,#720,#721));
#1171=EDGE_LOOP('',(#722,#723,#724,#725));
#1172=EDGE_LOOP('',(#726,#727,#728,#729));
#1173=EDGE_LOOP('',(#730,#731,#732,#733));
#1174=EDGE_LOOP('',(#734,#735,#736,#737));
#1175=EDGE_LOOP('',(#738));
#1176=EDGE_LOOP('',(#739));
#1177=EDGE_LOOP('',(#740,#741,#742));
#1178=EDGE_LOOP('',(#743,#744,#745));
#1179=EDGE_LOOP('',(#746,#747,#748));
#1180=EDGE_LOOP('',(#749,#750,#751));
#1181=EDGE_LOOP('',(#752,#753,#754,#755,#756,#757,#758,#759,#760,#761,#762,
#763));
#1182=EDGE_LOOP('',(#764));
#1183=EDGE_LOOP('',(#765));
#1184=EDGE_LOOP('',(#766));
#1185=FACE_BOUND('',#1087,.T.);
#1186=FACE_BOUND('',#1088,.T.);
#1187=FACE_BOUND('',#1089,.T.);
#1188=FACE_BOUND('',#1090,.T.);
#1189=FACE_BOUND('',#1091,.T.);
#1190=FACE_BOUND('',#1092,.T.);
#1191=FACE_BOUND('',#1093,.T.);
#1192=FACE_BOUND('',#1094,.T.);
#1193=FACE_BOUND('',#1095,.T.);
#1194=FACE_BOUND('',#1096,.T.);
#1195=FACE_BOUND('',#1097,.T.);
#1196=FACE_BOUND('',#1098,.T.);
#1197=FACE_BOUND('',#1099,.T.);
#1198=FACE_BOUND('',#1100,.T.);
#1199=FACE_BOUND('',#1101,.T.);
#1200=FACE_BOUND('',#1102,.T.);
#1201=FACE_BOUND('',#1103,.T.);
#1202=FACE_BOUND('',#1104,.T.);
#1203=FACE_BOUND('',#1105,.T.);
#1204=FACE_BOUND('',#1106,.T.);
#1205=FACE_BOUND('',#1107,.T.);
#1206=FACE_BOUND('',#1108,.T.);
#1207=FACE_BOUND('',#1109,.T.);
#1208=FACE_BOUND('',#1110,.T.);
#1209=FACE_BOUND('',#1111,.T.);
#1210=FACE_BOUND('',#1112,.T.);
#1211=FACE_BOUND('',#1113,.T.);
#1212=FACE_BOUND('',#1114,.T.);
#1213=FACE_BOUND('',#1115,.T.);
#1214=FACE_BOUND('',#1116,.T.);
#1215=FACE_BOUND('',#1117,.T.);
#1216=FACE_BOUND('',#1118,.T.);
#1217=FACE_BOUND('',#1119,.T.);
#1218=FACE_BOUND('',#1120,.T.);
#1219=FACE_BOUND('',#1121,.T.);
#1220=FACE_BOUND('',#1122,.T.);
#1221=FACE_BOUND('',#1123,.T.);
#1222=FACE_BOUND('',#1124,.T.);
#1223=FACE_BOUND('',#1125,.T.);
#1224=FACE_BOUND('',#1126,.T.);
#1225=FACE_BOUND('',#1127,.T.);
#1226=FACE_BOUND('',#1128,.T.);
#1227=FACE_BOUND('',#1129,.T.);
#1228=FACE_BOUND('',#1130,.T.);
#1229=FACE_BOUND('',#1131,.T.);
#1230=FACE_BOUND('',#1132,.T.);
#1231=FACE_BOUND('',#1133,.T.);
#1232=FACE_BOUND('',#1134,.T.);
#1233=FACE_BOUND('',#1135,.T.);
#1234=FACE_BOUND('',#1136,.T.);
#1235=FACE_BOUND('',#1137,.T.);
#1236=FACE_BOUND('',#1138,.T.);
#1237=FACE_BOUND('',#1139,.T.);
#1238=FACE_BOUND('',#1140,.T.);
#1239=FACE_BOUND('',#1141,.T.);
#1240=FACE_BOUND('',#1142,.T.);
#1241=FACE_BOUND('',#1143,.T.);
#1242=FACE_BOUND('',#1144,.T.);
#1243=FACE_BOUND('',#1145,.T.);
#1244=FACE_BOUND('',#1146,.T.);
#1245=FACE_BOUND('',#1147,.T.);
#1246=FACE_BOUND('',#1148,.T.);
#1247=FACE_BOUND('',#1149,.T.);
#1248=FACE_BOUND('',#1150,.T.);
#1249=FACE_BOUND('',#1151,.T.);
#1250=FACE_BOUND('',#1152,.T.);
#1251=FACE_BOUND('',#1153,.T.);
#1252=FACE_BOUND('',#1154,.T.);
#1253=FACE_BOUND('',#1155,.T.);
#1254=FACE_BOUND('',#1156,.T.);
#1255=FACE_BOUND('',#1157,.T.);
#1256=FACE_BOUND('',#1158,.T.);
#1257=FACE_BOUND('',#1159,.T.);
#1258=FACE_BOUND('',#1160,.T.);
#1259=FACE_BOUND('',#1161,.T.);
#1260=FACE_BOUND('',#1162,.T.);
#1261=FACE_BOUND('',#1163,.T.);
#1262=FACE_BOUND('',#1164,.T.);
#1263=FACE_BOUND('',#1165,.T.);
#1264=FACE_BOUND('',#1166,.T.);
#1265=FACE_BOUND('',#1167,.T.);
#1266=FACE_BOUND('',#1168,.T.);
#1267=FACE_BOUND('',#1169,.T.);
#1268=FACE_BOUND('',#1170,.T.);
#1269=FACE_BOUND('',#1171,.T.);
#1270=FACE_BOUND('',#1172,.T.);
#1271=FACE_BOUND('',#1173,.T.);
#1272=FACE_BOUND('',#1174,.T.);
#1273=FACE_BOUND('',#1175,.T.);
#1274=FACE_BOUND('',#1176,.T.);
#1275=FACE_BOUND('',#1177,.T.);
#1276=FACE_BOUND('',#1178,.T.);
#1277=FACE_BOUND('',#1179,.T.);
#1278=FACE_BOUND('',#1180,.T.);
#1279=FACE_BOUND('',#1181,.T.);
#1280=FACE_BOUND('',#1182,.T.);
#1281=FACE_BOUND('',#1183,.T.);
#1282=FACE_BOUND('',#1184,.T.);
#1283=PLANE('',#1463);
#1284=PLANE('',#1466);
#1285=PLANE('',#1467);
#1286=PLANE('',#1469);
#1287=PLANE('',#1470);
#1288=PLANE('',#1471);
#1289=PLANE('',#1472);
#1290=PLANE('',#1473);
#1291=PLANE('',#1474);
#1292=PLANE('',#1475);
#1293=PLANE('',#1476);
#1294=PLANE('',#1477);
#1295=PLANE('',#1478);
#1296=PLANE('',#1479);
#1297=PLANE('',#1480);
#1298=PLANE('',#1481);
#1299=PLANE('',#1482);
#1300=PLANE('',#1483);
#1301=PLANE('',#1484);
#1302=PLANE('',#1485);
#1303=PLANE('',#1486);
#1304=PLANE('',#1487);
#1305=PLANE('',#1488);
#1306=PLANE('',#1489);
#1307=PLANE('',#1490);
#1308=PLANE('',#1491);
#1309=PLANE('',#1492);
#1310=PLANE('',#1493);
#1311=PLANE('',#1494);
#1312=PLANE('',#1495);
#1313=PLANE('',#1496);
#1314=PLANE('',#1497);
#1315=PLANE('',#1498);
#1316=PLANE('',#1499);
#1317=PLANE('',#1500);
#1318=PLANE('',#1501);
#1319=PLANE('',#1502);
#1320=PLANE('',#1503);
#1321=PLANE('',#1504);
#1322=PLANE('',#1505);
#1323=PLANE('',#1506);
#1324=PLANE('',#1507);
#1325=PLANE('',#1508);
#1326=PLANE('',#1509);
#1327=PLANE('',#1510);
#1328=PLANE('',#1511);
#1329=PLANE('',#1512);
#1330=PLANE('',#1513);
#1331=PLANE('',#1514);
#1332=PLANE('',#1515);
#1333=PLANE('',#1516);
#1334=PLANE('',#1517);
#1335=PLANE('',#1518);
#1336=PLANE('',#1519);
#1337=PLANE('',#1520);
#1338=PLANE('',#1521);
#1339=PLANE('',#1522);
#1340=PLANE('',#1523);
#1341=PLANE('',#1524);
#1342=PLANE('',#1525);
#1343=PLANE('',#1526);
#1344=PLANE('',#1527);
#1345=PLANE('',#1528);
#1346=PLANE('',#1529);
#1347=PLANE('',#1530);
#1348=PLANE('',#1531);
#1349=PLANE('',#1532);
#1350=PLANE('',#1533);
#1351=PLANE('',#1534);
#1352=PLANE('',#1535);
#1353=PLANE('',#1536);
#1354=PLANE('',#1537);
#1355=PLANE('',#1538);
#1356=PLANE('',#1539);
#1357=PLANE('',#1540);
#1358=PLANE('',#1541);
#1359=PLANE('',#1542);
#1360=PLANE('',#1543);
#1361=PLANE('',#1546);
#1362=PLANE('',#1548);
#1363=PLANE('',#1550);
#1364=PLANE('',#1552);
#1365=ADVANCED_FACE('',(#1185,#1186),#1283,.T.);
#1366=ADVANCED_FACE('',(#1187),#1284,.T.);
#1367=ADVANCED_FACE('',(#1188,#1189,#1190,#1191,#1192,#1193,#1194,#1195,
#1196,#1197),#1285,.F.);
#1368=ADVANCED_FACE('',(#1198),#1286,.T.);
#1369=ADVANCED_FACE('',(#1199),#1287,.F.);
#1370=ADVANCED_FACE('',(#1200),#1288,.F.);
#1371=ADVANCED_FACE('',(#1201),#1289,.T.);
#1372=ADVANCED_FACE('',(#1202),#1290,.F.);
#1373=ADVANCED_FACE('',(#1203),#1291,.F.);
#1374=ADVANCED_FACE('',(#1204),#1292,.T.);
#1375=ADVANCED_FACE('',(#1205),#1293,.T.);
#1376=ADVANCED_FACE('',(#1206),#1294,.F.);
#1377=ADVANCED_FACE('',(#1207),#1295,.F.);
#1378=ADVANCED_FACE('',(#1208),#1296,.T.);
#1379=ADVANCED_FACE('',(#1209),#1297,.T.);
#1380=ADVANCED_FACE('',(#1210),#1298,.T.);
#1381=ADVANCED_FACE('',(#1211),#1299,.T.);
#1382=ADVANCED_FACE('',(#1212),#1300,.T.);
#1383=ADVANCED_FACE('',(#1213),#1301,.F.);
#1384=ADVANCED_FACE('',(#1214),#1302,.F.);
#1385=ADVANCED_FACE('',(#1215),#1303,.T.);
#1386=ADVANCED_FACE('',(#1216),#1304,.T.);
#1387=ADVANCED_FACE('',(#1217),#1305,.T.);
#1388=ADVANCED_FACE('',(#1218),#1306,.F.);
#1389=ADVANCED_FACE('',(#1219),#1307,.F.);
#1390=ADVANCED_FACE('',(#1220),#1308,.T.);
#1391=ADVANCED_FACE('',(#1221),#1309,.F.);
#1392=ADVANCED_FACE('',(#1222),#1310,.F.);
#1393=ADVANCED_FACE('',(#1223),#1311,.T.);
#1394=ADVANCED_FACE('',(#1224),#1312,.T.);
#1395=ADVANCED_FACE('',(#1225),#1313,.T.);
#1396=ADVANCED_FACE('',(#1226),#1314,.F.);
#1397=ADVANCED_FACE('',(#1227),#1315,.F.);
#1398=ADVANCED_FACE('',(#1228),#1316,.T.);
#1399=ADVANCED_FACE('',(#1229),#1317,.T.);
#1400=ADVANCED_FACE('',(#1230),#1318,.T.);
#1401=ADVANCED_FACE('',(#1231),#1319,.F.);
#1402=ADVANCED_FACE('',(#1232),#1320,.F.);
#1403=ADVANCED_FACE('',(#1233),#1321,.T.);
#1404=ADVANCED_FACE('',(#1234),#1322,.T.);
#1405=ADVANCED_FACE('',(#1235),#1323,.T.);
#1406=ADVANCED_FACE('',(#1236),#1324,.T.);
#1407=ADVANCED_FACE('',(#1237),#1325,.F.);
#1408=ADVANCED_FACE('',(#1238),#1326,.F.);
#1409=ADVANCED_FACE('',(#1239),#1327,.T.);
#1410=ADVANCED_FACE('',(#1240),#1328,.T.);
#1411=ADVANCED_FACE('',(#1241),#1329,.T.);
#1412=ADVANCED_FACE('',(#1242),#1330,.T.);
#1413=ADVANCED_FACE('',(#1243),#1331,.F.);
#1414=ADVANCED_FACE('',(#1244),#1332,.F.);
#1415=ADVANCED_FACE('',(#1245),#1333,.F.);
#1416=ADVANCED_FACE('',(#1246),#1334,.F.);
#1417=ADVANCED_FACE('',(#1247),#1335,.T.);
#1418=ADVANCED_FACE('',(#1248),#1336,.T.);
#1419=ADVANCED_FACE('',(#1249),#1337,.F.);
#1420=ADVANCED_FACE('',(#1250),#1338,.F.);
#1421=ADVANCED_FACE('',(#1251),#1339,.T.);
#1422=ADVANCED_FACE('',(#1252),#1340,.T.);
#1423=ADVANCED_FACE('',(#1253),#1341,.T.);
#1424=ADVANCED_FACE('',(#1254),#1342,.F.);
#1425=ADVANCED_FACE('',(#1255),#1343,.T.);
#1426=ADVANCED_FACE('',(#1256),#1344,.F.);
#1427=ADVANCED_FACE('',(#1257),#1345,.T.);
#1428=ADVANCED_FACE('',(#1258),#1346,.T.);
#1429=ADVANCED_FACE('',(#1259),#1347,.F.);
#1430=ADVANCED_FACE('',(#1260),#1348,.F.);
#1431=ADVANCED_FACE('',(#1261),#1349,.T.);
#1432=ADVANCED_FACE('',(#1262),#1350,.T.);
#1433=ADVANCED_FACE('',(#1263),#1351,.F.);
#1434=ADVANCED_FACE('',(#1264),#1352,.F.);
#1435=ADVANCED_FACE('',(#1265),#1353,.T.);
#1436=ADVANCED_FACE('',(#1266),#1354,.T.);
#1437=ADVANCED_FACE('',(#1267),#1355,.F.);
#1438=ADVANCED_FACE('',(#1268),#1356,.F.);
#1439=ADVANCED_FACE('',(#1269),#1357,.T.);
#1440=ADVANCED_FACE('',(#1270),#1358,.F.);
#1441=ADVANCED_FACE('',(#1271),#1359,.T.);
#1442=ADVANCED_FACE('',(#1272),#1360,.F.);
#1443=ADVANCED_FACE('',(#1273,#1274),#22,.F.);
#1444=ADVANCED_FACE('',(#1275),#1361,.T.);
#1445=ADVANCED_FACE('',(#1276),#1362,.T.);
#1446=ADVANCED_FACE('',(#1277),#1363,.T.);
#1447=ADVANCED_FACE('',(#1278),#1364,.T.);
#1448=ADVANCED_FACE('',(#1279,#1280),#20,.T.);
#1449=ADVANCED_FACE('',(#1281,#1282),#21,.F.);
#1450=CLOSED_SHELL('',(#1365,#1366,#1367,#1368,#1369,#1370,#1371,#1372,
#1373,#1374,#1375,#1376,#1377,#1378,#1379,#1380,#1381,#1382,#1383,#1384,
#1385,#1386,#1387,#1388,#1389,#1390,#1391,#1392,#1393,#1394,#1395,#1396,
#1397,#1398,#1399,#1400,#1401,#1402,#1403,#1404,#1405,#1406,#1407,#1408,
#1409,#1410,#1411,#1412,#1413,#1414,#1415,#1416,#1417,#1418,#1419,#1420,
#1421,#1422,#1423,#1424,#1425,#1426,#1427,#1428,#1429,#1430,#1431,#1432,
#1433,#1434,#1435,#1436,#1437,#1438,#1439,#1440,#1441,#1442,#1443,#1444,
#1445,#1446,#1447,#1448,#1449));
#1451=STYLED_ITEM('',(#1452),#1459);
#1452=PRESENTATION_STYLE_ASSIGNMENT((#1453));
#1453=SURFACE_STYLE_USAGE(.BOTH.,#1454);
#1454=SURFACE_SIDE_STYLE('',(#1455));
#1455=SURFACE_STYLE_FILL_AREA(#1456);
#1456=FILL_AREA_STYLE('',(#1457));
#1457=FILL_AREA_STYLE_COLOUR('',#1458);
#1458=COLOUR_RGB('',0.647058823529412,0.647058823529412,0.647058823529412);
#1459=MANIFOLD_SOLID_BREP('jerry''s nut',#1450);
#1460=SHAPE_DEFINITION_REPRESENTATION(#2356,#1461);
#1461=SHAPE_REPRESENTATION('jerry''s nut',(#1462),#2351);
#1462=AXIS2_PLACEMENT_3D('',#1920,#1556,#1557);
#1463=AXIS2_PLACEMENT_3D('',#1921,#1558,#1559);
#1464=AXIS2_PLACEMENT_3D('',#1922,#1560,#1561);
#1465=AXIS2_PLACEMENT_3D('',#1924,#1562,#1563);
#1466=AXIS2_PLACEMENT_3D('',#1926,#1564,#1565);
#1467=AXIS2_PLACEMENT_3D('',#1949,#1571,#1572);
#1468=AXIS2_PLACEMENT_3D('',#1950,#1573,#1574);
#1469=AXIS2_PLACEMENT_3D('',#2021,#1610,#1611);
#1470=AXIS2_PLACEMENT_3D('',#2039,#1615,#1616);
#1471=AXIS2_PLACEMENT_3D('',#2057,#1620,#1621);
#1472=AXIS2_PLACEMENT_3D('',#2073,#1624,#1625);
#1473=AXIS2_PLACEMENT_3D('',#2079,#1629,#1630);
#1474=AXIS2_PLACEMENT_3D('',#2083,#1633,#1634);
#1475=AXIS2_PLACEMENT_3D('',#2087,#1637,#1638);
#1476=AXIS2_PLACEMENT_3D('',#2089,#1640,#1641);
#1477=AXIS2_PLACEMENT_3D('',#2098,#1646,#1647);
#1478=AXIS2_PLACEMENT_3D('',#2104,#1651,#1652);
#1479=AXIS2_PLACEMENT_3D('',#2108,#1655,#1656);
#1480=AXIS2_PLACEMENT_3D('',#2112,#1659,#1660);
#1481=AXIS2_PLACEMENT_3D('',#2114,#1662,#1663);
#1482=AXIS2_PLACEMENT_3D('',#2123,#1668,#1669);
#1483=AXIS2_PLACEMENT_3D('',#2129,#1673,#1674);
#1484=AXIS2_PLACEMENT_3D('',#2133,#1677,#1678);
#1485=AXIS2_PLACEMENT_3D('',#2137,#1681,#1682);
#1486=AXIS2_PLACEMENT_3D('',#2139,#1684,#1685);
#1487=AXIS2_PLACEMENT_3D('',#2148,#1690,#1691);
#1488=AXIS2_PLACEMENT_3D('',#2154,#1695,#1696);
#1489=AXIS2_PLACEMENT_3D('',#2158,#1699,#1700);
#1490=AXIS2_PLACEMENT_3D('',#2162,#1703,#1704);
#1491=AXIS2_PLACEMENT_3D('',#2164,#1706,#1707);
#1492=AXIS2_PLACEMENT_3D('',#2173,#1712,#1713);
#1493=AXIS2_PLACEMENT_3D('',#2179,#1717,#1718);
#1494=AXIS2_PLACEMENT_3D('',#2183,#1721,#1722);
#1495=AXIS2_PLACEMENT_3D('',#2187,#1725,#1726);
#1496=AXIS2_PLACEMENT_3D('',#2189,#1728,#1729);
#1497=AXIS2_PLACEMENT_3D('',#2198,#1734,#1735);
#1498=AXIS2_PLACEMENT_3D('',#2204,#1739,#1740);
#1499=AXIS2_PLACEMENT_3D('',#2208,#1743,#1744);
#1500=AXIS2_PLACEMENT_3D('',#2212,#1747,#1748);
#1501=AXIS2_PLACEMENT_3D('',#2214,#1750,#1751);
#1502=AXIS2_PLACEMENT_3D('',#2223,#1756,#1757);
#1503=AXIS2_PLACEMENT_3D('',#2229,#1761,#1762);
#1504=AXIS2_PLACEMENT_3D('',#2233,#1765,#1766);
#1505=AXIS2_PLACEMENT_3D('',#2237,#1769,#1770);
#1506=AXIS2_PLACEMENT_3D('',#2239,#1772,#1773);
#1507=AXIS2_PLACEMENT_3D('',#2248,#1778,#1779);
#1508=AXIS2_PLACEMENT_3D('',#2254,#1783,#1784);
#1509=AXIS2_PLACEMENT_3D('',#2258,#1787,#1788);
#1510=AXIS2_PLACEMENT_3D('',#2262,#1791,#1792);
#1511=AXIS2_PLACEMENT_3D('',#2264,#1794,#1795);
#1512=AXIS2_PLACEMENT_3D('',#2273,#1800,#1801);
#1513=AXIS2_PLACEMENT_3D('',#2276,#1804,#1805);
#1514=AXIS2_PLACEMENT_3D('',#2278,#1807,#1808);
#1515=AXIS2_PLACEMENT_3D('',#2280,#1810,#1811);
#1516=AXIS2_PLACEMENT_3D('',#2281,#1812,#1813);
#1517=AXIS2_PLACEMENT_3D('',#2284,#1816,#1817);
#1518=AXIS2_PLACEMENT_3D('',#2286,#1819,#1820);
#1519=AXIS2_PLACEMENT_3D('',#2288,#1822,#1823);
#1520=AXIS2_PLACEMENT_3D('',#2289,#1824,#1825);
#1521=AXIS2_PLACEMENT_3D('',#2292,#1828,#1829);
#1522=AXIS2_PLACEMENT_3D('',#2294,#1831,#1832);
#1523=AXIS2_PLACEMENT_3D('',#2296,#1834,#1835);
#1524=AXIS2_PLACEMENT_3D('',#2297,#1836,#1837);
#1525=AXIS2_PLACEMENT_3D('',#2300,#1840,#1841);
#1526=AXIS2_PLACEMENT_3D('',#2302,#1843,#1844);
#1527=AXIS2_PLACEMENT_3D('',#2304,#1846,#1847);
#1528=AXIS2_PLACEMENT_3D('',#2305,#1848,#1849);
#1529=AXIS2_PLACEMENT_3D('',#2308,#1852,#1853);
#1530=AXIS2_PLACEMENT_3D('',#2310,#1855,#1856);
#1531=AXIS2_PLACEMENT_3D('',#2312,#1858,#1859);
#1532=AXIS2_PLACEMENT_3D('',#2313,#1860,#1861);
#1533=AXIS2_PLACEMENT_3D('',#2316,#1864,#1865);
#1534=AXIS2_PLACEMENT_3D('',#2318,#1867,#1868);
#1535=AXIS2_PLACEMENT_3D('',#2320,#1870,#1871);
#1536=AXIS2_PLACEMENT_3D('',#2321,#1872,#1873);
#1537=AXIS2_PLACEMENT_3D('',#2324,#1876,#1877);
#1538=AXIS2_PLACEMENT_3D('',#2326,#1879,#1880);
#1539=AXIS2_PLACEMENT_3D('',#2328,#1882,#1883);
#1540=AXIS2_PLACEMENT_3D('',#2329,#1884,#1885);
#1541=AXIS2_PLACEMENT_3D('',#2332,#1888,#1889);
#1542=AXIS2_PLACEMENT_3D('',#2334,#1891,#1892);
#1543=AXIS2_PLACEMENT_3D('',#2336,#1894,#1895);
#1544=AXIS2_PLACEMENT_3D('',#2337,#1896,#1897);
#1545=AXIS2_PLACEMENT_3D('',#2338,#1898,#1899);
#1546=AXIS2_PLACEMENT_3D('',#2340,#1900,#1901);
#1547=AXIS2_PLACEMENT_3D('',#2341,#1902,#1903);
#1548=AXIS2_PLACEMENT_3D('',#2342,#1904,#1905);
#1549=AXIS2_PLACEMENT_3D('',#2343,#1906,#1907);
#1550=AXIS2_PLACEMENT_3D('',#2344,#1908,#1909);
#1551=AXIS2_PLACEMENT_3D('',#2345,#1910,#1911);
#1552=AXIS2_PLACEMENT_3D('',#2346,#1912,#1913);
#1553=AXIS2_PLACEMENT_3D('',#2347,#1914,#1915);
#1554=AXIS2_PLACEMENT_3D('',#2348,#1916,#1917);
#1555=AXIS2_PLACEMENT_3D('',#2349,#1918,#1919);
#1556=DIRECTION('',(0.,0.,1.));
#1557=DIRECTION('',(1.,0.,0.));
#1558=DIRECTION('',(0.,1.,0.));
#1559=DIRECTION('',(1.,0.,0.));
#1560=DIRECTION('',(0.,1.,0.));
#1561=DIRECTION('',(1.,0.,0.));
#1562=DIRECTION('',(0.,1.,0.));
#1563=DIRECTION('',(1.,0.,0.));
#1564=DIRECTION('',(0.,0.,1.));
#1565=DIRECTION('',(0.,-1.,0.));
#1566=DIRECTION('',(1.,0.,0.));
#1567=DIRECTION('',(0.,1.,0.));
#1568=DIRECTION('',(1.,0.,0.));
#1569=DIRECTION('',(0.,1.,0.));
#1570=DIRECTION('',(1.,0.,0.));
#1571=DIRECTION('',(0.,1.,0.));
#1572=DIRECTION('',(1.,0.,0.));
#1573=DIRECTION('',(0.,1.,0.));
#1574=DIRECTION('',(1.,0.,6.12323399573677E-17));
#1575=DIRECTION('',(-1.,0.,0.));
#1576=DIRECTION('',(-1.91894189820443E-16,0.,-1.));
#1577=DIRECTION('',(-1.,0.,0.));
#1578=DIRECTION('',(-1.91894189820443E-16,0.,-1.));
#1579=DIRECTION('',(-1.91894189820443E-16,0.,1.));
#1580=DIRECTION('',(-1.,0.,0.));
#1581=DIRECTION('',(0.,0.,1.));
#1582=DIRECTION('',(-1.,0.,0.));
#1583=DIRECTION('',(-1.,0.,0.));
#1584=DIRECTION('',(0.,0.,-1.));
#1585=DIRECTION('',(-1.,0.,0.));
#1586=DIRECTION('',(0.,0.,-1.));
#1587=DIRECTION('',(0.,0.,1.));
#1588=DIRECTION('',(-1.,0.,0.));
#1589=DIRECTION('',(0.,0.,1.));
#1590=DIRECTION('',(-1.,0.,0.));
#1591=DIRECTION('',(-1.92747052886312E-16,0.,1.));
#1592=DIRECTION('',(1.,0.,0.));
#1593=DIRECTION('',(-1.92747052886312E-16,0.,1.));
#1594=DIRECTION('',(0.,0.,-1.));
#1595=DIRECTION('',(-1.,0.,0.));
#1596=DIRECTION('',(0.,0.,-1.));
#1597=DIRECTION('',(-1.,0.,0.));
#1598=DIRECTION('',(-1.91894189820443E-16,0.,-1.));
#1599=DIRECTION('',(-1.,0.,0.));
#1600=DIRECTION('',(0.,0.,-1.));
#1601=DIRECTION('',(-1.,0.,0.));
#1602=DIRECTION('',(-1.91894189820443E-16,0.,1.));
#1603=DIRECTION('',(-1.,0.,0.));
#1604=DIRECTION('',(-1.91894189820443E-16,0.,1.));
#1605=DIRECTION('',(-1.,0.,0.));
#1606=DIRECTION('',(0.,0.,1.));
#1607=DIRECTION('',(-1.,0.,0.));
#1608=DIRECTION('',(0.,0.,1.));
#1609=DIRECTION('',(-1.,0.,0.));
#1610=DIRECTION('',(-1.,0.,-1.92747052886312E-16));
#1611=DIRECTION('',(-1.92747052886312E-16,0.,1.));
#1612=DIRECTION('',(-1.92747052886312E-16,0.,1.));
#1613=DIRECTION('',(0.,1.,0.));
#1614=DIRECTION('',(-1.92747052886312E-16,0.,1.));
#1615=DIRECTION('',(-1.,0.,-1.92747052886312E-16));
#1616=DIRECTION('',(-1.92747052886312E-16,0.,1.));
#1617=DIRECTION('',(0.,1.,0.));
#1618=DIRECTION('',(-1.92747052886312E-16,0.,1.));
#1619=DIRECTION('',(-1.92747052886312E-16,0.,1.));
#1620=DIRECTION('',(0.,0.,1.));
#1621=DIRECTION('',(0.,-1.,0.));
#1622=DIRECTION('',(1.,0.,0.));
#1623=DIRECTION('',(1.,0.,0.));
#1624=DIRECTION('',(0.,0.,-1.));
#1625=DIRECTION('',(0.,1.,0.));
#1626=DIRECTION('',(0.,1.,0.));
#1627=DIRECTION('',(-1.,0.,0.));
#1628=DIRECTION('',(0.,1.,0.));
#1629=DIRECTION('',(-1.,0.,0.));
#1630=DIRECTION('',(0.,1.,0.));
#1631=DIRECTION('',(0.,1.,0.));
#1632=DIRECTION('',(0.,0.,-1.));
#1633=DIRECTION('',(0.,0.,-1.));
#1634=DIRECTION('',(0.,1.,0.));
#1635=DIRECTION('',(0.,1.,0.));
#1636=DIRECTION('',(1.,0.,0.));
#1637=DIRECTION('',(-1.,0.,0.));
#1638=DIRECTION('',(0.,1.,0.));
#1639=DIRECTION('',(0.,0.,1.));
#1640=DIRECTION('',(0.,-1.,0.));
#1641=DIRECTION('',(1.,0.,0.));
#1642=DIRECTION('',(-1.,0.,0.));
#1643=DIRECTION('',(0.,0.,-1.));
#1644=DIRECTION('',(1.,0.,0.));
#1645=DIRECTION('',(0.,0.,1.));
#1646=DIRECTION('',(0.,0.,-1.));
#1647=DIRECTION('',(0.,1.,0.));
#1648=DIRECTION('',(0.,1.,0.));
#1649=DIRECTION('',(1.,0.,0.));
#1650=DIRECTION('',(0.,1.,0.));
#1651=DIRECTION('',(1.,0.,0.));
#1652=DIRECTION('',(0.,-1.,0.));
#1653=DIRECTION('',(0.,1.,0.));
#1654=DIRECTION('',(0.,0.,1.));
#1655=DIRECTION('',(0.,0.,-1.));
#1656=DIRECTION('',(0.,1.,0.));
#1657=DIRECTION('',(0.,1.,0.));
#1658=DIRECTION('',(-1.,0.,0.));
#1659=DIRECTION('',(1.,0.,0.));
#1660=DIRECTION('',(0.,-1.,0.));
#1661=DIRECTION('',(0.,0.,-1.));
#1662=DIRECTION('',(0.,-1.,0.));
#1663=DIRECTION('',(1.,0.,0.));
#1664=DIRECTION('',(1.,0.,0.));
#1665=DIRECTION('',(0.,0.,1.));
#1666=DIRECTION('',(-1.,0.,0.));
#1667=DIRECTION('',(0.,0.,-1.));
#1668=DIRECTION('',(0.,0.,-1.));
#1669=DIRECTION('',(0.,1.,0.));
#1670=DIRECTION('',(0.,1.,0.));
#1671=DIRECTION('',(-1.,0.,0.));
#1672=DIRECTION('',(0.,1.,0.));
#1673=DIRECTION('',(1.,0.,0.));
#1674=DIRECTION('',(0.,-1.,0.));
#1675=DIRECTION('',(0.,1.,0.));
#1676=DIRECTION('',(0.,0.,-1.));
#1677=DIRECTION('',(0.,0.,-1.));
#1678=DIRECTION('',(0.,1.,0.));
#1679=DIRECTION('',(0.,1.,0.));
#1680=DIRECTION('',(1.,0.,0.));
#1681=DIRECTION('',(1.,0.,0.));
#1682=DIRECTION('',(0.,-1.,0.));
#1683=DIRECTION('',(0.,0.,1.));
#1684=DIRECTION('',(0.,-1.,0.));
#1685=DIRECTION('',(1.,0.,0.));
#1686=DIRECTION('',(0.,0.,1.));
#1687=DIRECTION('',(-1.,0.,0.));
#1688=DIRECTION('',(0.,0.,-1.));
#1689=DIRECTION('',(1.,0.,0.));
#1690=DIRECTION('',(0.,0.,-1.));
#1691=DIRECTION('',(0.,1.,0.));
#1692=DIRECTION('',(0.,1.,0.));
#1693=DIRECTION('',(-1.,0.,0.));
#1694=DIRECTION('',(0.,1.,0.));
#1695=DIRECTION('',(1.,0.,-1.91894189820443E-16));
#1696=DIRECTION('',(-1.91894189820443E-16,0.,-1.));
#1697=DIRECTION('',(0.,1.,0.));
#1698=DIRECTION('',(-1.91894189820443E-16,0.,-1.));
#1699=DIRECTION('',(0.,0.,-1.));
#1700=DIRECTION('',(0.,1.,0.));
#1701=DIRECTION('',(0.,1.,0.));
#1702=DIRECTION('',(1.,0.,0.));
#1703=DIRECTION('',(1.,0.,0.));
#1704=DIRECTION('',(0.,-1.,0.));
#1705=DIRECTION('',(0.,0.,1.));
#1706=DIRECTION('',(0.,-1.,0.));
#1707=DIRECTION('',(1.,0.,0.));
#1708=DIRECTION('',(1.91894189820443E-16,0.,1.));
#1709=DIRECTION('',(-1.,0.,0.));
#1710=DIRECTION('',(0.,0.,-1.));
#1711=DIRECTION('',(1.,0.,0.));
#1712=DIRECTION('',(-1.,0.,-1.91894189820443E-16));
#1713=DIRECTION('',(-1.91894189820443E-16,0.,1.));
#1714=DIRECTION('',(0.,1.,0.));
#1715=DIRECTION('',(1.91894189820443E-16,0.,-1.));
#1716=DIRECTION('',(0.,1.,0.));
#1717=DIRECTION('',(0.,0.,-1.));
#1718=DIRECTION('',(0.,1.,0.));
#1719=DIRECTION('',(0.,1.,0.));
#1720=DIRECTION('',(1.,0.,0.));
#1721=DIRECTION('',(-1.,0.,-1.91894189820443E-16));
#1722=DIRECTION('',(-1.91894189820443E-16,0.,1.));
#1723=DIRECTION('',(0.,1.,0.));
#1724=DIRECTION('',(-1.91894189820443E-16,0.,1.));
#1725=DIRECTION('',(0.,0.,-1.));
#1726=DIRECTION('',(0.,1.,0.));
#1727=DIRECTION('',(-1.,0.,0.));
#1728=DIRECTION('',(0.,-1.,0.));
#1729=DIRECTION('',(1.,0.,0.));
#1730=DIRECTION('',(1.91894189820443E-16,0.,-1.));
#1731=DIRECTION('',(1.,0.,0.));
#1732=DIRECTION('',(-1.91894189820443E-16,0.,1.));
#1733=DIRECTION('',(-1.,0.,0.));
#1734=DIRECTION('',(-1.,0.,-1.91894189820443E-16));
#1735=DIRECTION('',(-1.91894189820443E-16,0.,1.));
#1736=DIRECTION('',(0.,1.,0.));
#1737=DIRECTION('',(1.91894189820443E-16,0.,-1.));
#1738=DIRECTION('',(0.,1.,0.));
#1739=DIRECTION('',(0.,0.,-1.));
#1740=DIRECTION('',(0.,1.,0.));
#1741=DIRECTION('',(0.,1.,0.));
#1742=DIRECTION('',(1.,0.,0.));
#1743=DIRECTION('',(-1.,0.,0.));
#1744=DIRECTION('',(0.,1.,0.));
#1745=DIRECTION('',(0.,1.,0.));
#1746=DIRECTION('',(0.,0.,1.));
#1747=DIRECTION('',(0.,0.,-1.));
#1748=DIRECTION('',(0.,1.,0.));
#1749=DIRECTION('',(-1.,0.,0.));
#1750=DIRECTION('',(0.,-1.,0.));
#1751=DIRECTION('',(1.,0.,0.));
#1752=DIRECTION('',(0.,0.,-1.));
#1753=DIRECTION('',(1.,0.,0.));
#1754=DIRECTION('',(-1.91894189820443E-16,0.,1.));
#1755=DIRECTION('',(-1.,0.,0.));
#1756=DIRECTION('',(-1.,0.,0.));
#1757=DIRECTION('',(0.,1.,0.));
#1758=DIRECTION('',(0.,1.,0.));
#1759=DIRECTION('',(0.,0.,-1.));
#1760=DIRECTION('',(0.,1.,0.));
#1761=DIRECTION('',(0.,0.,-1.));
#1762=DIRECTION('',(0.,1.,0.));
#1763=DIRECTION('',(0.,1.,0.));
#1764=DIRECTION('',(1.,0.,0.));
#1765=DIRECTION('',(-1.,0.,0.));
#1766=DIRECTION('',(0.,1.,0.));
#1767=DIRECTION('',(0.,1.,0.));
#1768=DIRECTION('',(0.,0.,1.));
#1769=DIRECTION('',(0.,0.,-1.));
#1770=DIRECTION('',(0.,1.,0.));
#1771=DIRECTION('',(-1.,0.,0.));
#1772=DIRECTION('',(0.,-1.,0.));
#1773=DIRECTION('',(1.,0.,0.));
#1774=DIRECTION('',(0.,0.,-1.));
#1775=DIRECTION('',(1.,0.,0.));
#1776=DIRECTION('',(0.,0.,1.));
#1777=DIRECTION('',(-1.,0.,0.));
#1778=DIRECTION('',(1.,0.,-1.91894189820443E-16));
#1779=DIRECTION('',(-1.91894189820443E-16,0.,-1.));
#1780=DIRECTION('',(0.,1.,0.));
#1781=DIRECTION('',(-1.91894189820443E-16,0.,-1.));
#1782=DIRECTION('',(0.,1.,0.));
#1783=DIRECTION('',(0.,0.,-1.));
#1784=DIRECTION('',(0.,1.,0.));
#1785=DIRECTION('',(0.,1.,0.));
#1786=DIRECTION('',(1.,0.,0.));
#1787=DIRECTION('',(1.,0.,-1.91894189820443E-16));
#1788=DIRECTION('',(-1.91894189820443E-16,0.,-1.));
#1789=DIRECTION('',(0.,1.,0.));
#1790=DIRECTION('',(1.91894189820443E-16,0.,1.));
#1791=DIRECTION('',(0.,0.,-1.));
#1792=DIRECTION('',(0.,1.,0.));
#1793=DIRECTION('',(-1.,0.,0.));
#1794=DIRECTION('',(0.,-1.,0.));
#1795=DIRECTION('',(1.,0.,0.));
#1796=DIRECTION('',(-1.91894189820443E-16,0.,-1.));
#1797=DIRECTION('',(1.,0.,0.));
#1798=DIRECTION('',(1.91894189820443E-16,0.,1.));
#1799=DIRECTION('',(-1.,0.,0.));
#1800=DIRECTION('',(-0.707106781186548,-0.707106781186547,0.));
#1801=DIRECTION('',(0.,0.,1.));
#1802=DIRECTION('',(0.577350269189625,-0.577350269189626,0.577350269189626));
#1803=DIRECTION('',(-0.577350269189625,0.577350269189626,0.577350269189626));
#1804=DIRECTION('',(0.,-0.707106781186548,0.707106781186548));
#1805=DIRECTION('',(1.,0.,0.));
#1806=DIRECTION('',(-0.577350269189626,-0.577350269189626,-0.577350269189626));
#1807=DIRECTION('',(0.,0.707106781186548,0.707106781186548));
#1808=DIRECTION('',(-1.,0.,0.));
#1809=DIRECTION('',(-0.577350269189626,-0.577350269189626,0.577350269189626));
#1810=DIRECTION('',(-0.707106781186548,0.707106781186548,0.));
#1811=DIRECTION('',(0.,0.,-1.));
#1812=DIRECTION('',(0.,0.707106781186548,0.707106781186548));
#1813=DIRECTION('',(-1.,0.,0.));
#1814=DIRECTION('',(-0.577350269189626,0.577350269189626,-0.577350269189626));
#1815=DIRECTION('',(-0.577350269189626,-0.577350269189626,0.577350269189626));
#1816=DIRECTION('',(-0.707106781186548,0.707106781186548,0.));
#1817=DIRECTION('',(0.,0.,-1.));
#1818=DIRECTION('',(0.577350269189626,0.577350269189626,0.577350269189626));
#1819=DIRECTION('',(-0.707106781186548,-0.707106781186548,0.));
#1820=DIRECTION('',(0.,0.,1.));
#1821=DIRECTION('',(-0.577350269189626,0.577350269189626,0.577350269189626));
#1822=DIRECTION('',(0.,-0.707106781186548,0.707106781186548));
#1823=DIRECTION('',(1.,0.,0.));
#1824=DIRECTION('',(0.,0.707106781186548,0.707106781186548));
#1825=DIRECTION('',(-1.,0.,0.));
#1826=DIRECTION('',(0.577350269189626,-0.577350269189626,0.577350269189626));
#1827=DIRECTION('',(0.577350269189626,0.577350269189626,-0.577350269189626));
#1828=DIRECTION('',(-0.707106781186548,0.707106781186547,1.35689682892334E-16));
#1829=DIRECTION('',(-1.91894189820443E-16,0.,-1.));
#1830=DIRECTION('',(0.577350269189626,0.577350269189626,0.577350269189626));
#1831=DIRECTION('',(-0.707106781186548,-0.707106781186548,0.));
#1832=DIRECTION('',(0.,0.,1.));
#1833=DIRECTION('',(-0.577350269189626,0.577350269189626,0.577350269189626));
#1834=DIRECTION('',(0.,-0.707106781186548,0.707106781186548));
#1835=DIRECTION('',(1.,0.,0.));
#1836=DIRECTION('',(0.,-0.707106781186548,0.707106781186548));
#1837=DIRECTION('',(1.,0.,0.));
#1838=DIRECTION('',(0.577350269189626,-0.577350269189626,-0.577350269189626));
#1839=DIRECTION('',(0.577350269189626,0.577350269189626,0.577350269189626));
#1840=DIRECTION('',(-0.707106781186548,0.707106781186547,1.35689682892334E-16));
#1841=DIRECTION('',(-1.91894189820443E-16,0.,-1.));
#1842=DIRECTION('',(0.577350269189626,0.577350269189626,-0.577350269189626));
#1843=DIRECTION('',(-0.707106781186547,-0.707106781186548,1.35689682892334E-16));
#1844=DIRECTION('',(1.91894189820443E-16,0.,1.));
#1845=DIRECTION('',(-0.577350269189626,0.577350269189626,-0.577350269189626));
#1846=DIRECTION('',(0.,0.707106781186548,0.707106781186548));
#1847=DIRECTION('',(-1.,0.,0.));
#1848=DIRECTION('',(0.,-0.707106781186548,0.707106781186547));
#1849=DIRECTION('',(1.,0.,0.));
#1850=DIRECTION('',(-0.577350269189626,0.577350269189626,0.577350269189626));
#1851=DIRECTION('',(-0.577350269189626,-0.577350269189626,-0.577350269189626));
#1852=DIRECTION('',(0.707106781186548,-0.707106781186548,0.));
#1853=DIRECTION('',(0.,0.,-1.));
#1854=DIRECTION('',(-0.577350269189626,-0.577350269189626,0.577350269189626));
#1855=DIRECTION('',(0.707106781186548,0.707106781186548,0.));
#1856=DIRECTION('',(0.,0.,1.));
#1857=DIRECTION('',(0.577350269189626,-0.577350269189626,0.577350269189626));
#1858=DIRECTION('',(0.,0.707106781186548,0.707106781186548));
#1859=DIRECTION('',(-1.,0.,0.));
#1860=DIRECTION('',(0.,-0.707106781186548,0.707106781186548));
#1861=DIRECTION('',(1.,0.,0.));
#1862=DIRECTION('',(-0.577350269189626,0.577350269189626,0.577350269189626));
#1863=DIRECTION('',(-0.577350269189626,-0.577350269189626,-0.577350269189626));
#1864=DIRECTION('',(0.707106781186548,-0.707106781186548,1.35689682892334E-16));
#1865=DIRECTION('',(1.91894189820443E-16,0.,-1.));
#1866=DIRECTION('',(-0.577350269189626,-0.577350269189626,0.577350269189626));
#1867=DIRECTION('',(0.707106781186548,0.707106781186548,0.));
#1868=DIRECTION('',(0.,0.,1.));
#1869=DIRECTION('',(0.577350269189626,-0.577350269189626,0.577350269189626));
#1870=DIRECTION('',(0.,0.707106781186548,0.707106781186548));
#1871=DIRECTION('',(-1.,0.,0.));
#1872=DIRECTION('',(0.,-0.707106781186547,0.707106781186548));
#1873=DIRECTION('',(1.,0.,0.));
#1874=DIRECTION('',(-0.577350269189626,0.577350269189626,0.577350269189625));
#1875=DIRECTION('',(-0.577350269189626,-0.577350269189626,-0.577350269189625));
#1876=DIRECTION('',(0.707106781186548,-0.707106781186548,1.35689682892334E-16));
#1877=DIRECTION('',(1.91894189820443E-16,0.,-1.));
#1878=DIRECTION('',(-0.577350269189626,-0.577350269189626,0.577350269189626));
#1879=DIRECTION('',(0.707106781186548,0.707106781186548,1.35689682892334E-16));
#1880=DIRECTION('',(-1.91894189820443E-16,0.,1.));
#1881=DIRECTION('',(0.577350269189626,-0.577350269189626,0.577350269189626));
#1882=DIRECTION('',(0.,0.707106781186548,0.707106781186548));
#1883=DIRECTION('',(-1.,0.,0.));
#1884=DIRECTION('',(0.707106781186548,-0.707106781186548,0.));
#1885=DIRECTION('',(0.,0.,-1.));
#1886=DIRECTION('',(0.577350269189626,0.577350269189626,0.577350269189625));
#1887=DIRECTION('',(-0.577350269189626,-0.577350269189626,0.577350269189626));
#1888=DIRECTION('',(0.,0.707106781186548,0.707106781186548));
#1889=DIRECTION('',(-1.,0.,0.));
#1890=DIRECTION('',(-0.577350269189625,0.577350269189626,-0.577350269189626));
#1891=DIRECTION('',(0.,-0.707106781186547,0.707106781186548));
#1892=DIRECTION('',(1.,0.,0.));
#1893=DIRECTION('',(-0.577350269189626,0.577350269189626,0.577350269189626));
#1894=DIRECTION('',(0.707106781186548,0.707106781186547,0.));
#1895=DIRECTION('',(0.,0.,1.));
#1896=DIRECTION('',(0.,1.,0.));
#1897=DIRECTION('',(1.,0.,0.));
#1898=DIRECTION('',(0.,1.,0.));
#1899=DIRECTION('',(1.,0.,0.));
#1900=DIRECTION('',(0.,1.,0.));
#1901=DIRECTION('',(1.,0.,0.));
#1902=DIRECTION('',(0.,1.,0.));
#1903=DIRECTION('',(1.,0.,0.));
#1904=DIRECTION('',(0.,1.,0.));
#1905=DIRECTION('',(1.,0.,0.));
#1906=DIRECTION('',(0.,1.,0.));
#1907=DIRECTION('',(1.,0.,0.));
#1908=DIRECTION('',(0.,1.,0.));
#1909=DIRECTION('',(1.,0.,0.));
#1910=DIRECTION('',(0.,1.,0.));
#1911=DIRECTION('',(1.,0.,0.));
#1912=DIRECTION('',(0.,1.,0.));
#1913=DIRECTION('',(1.,0.,0.));
#1914=DIRECTION('',(0.,1.,0.));
#1915=DIRECTION('',(1.,0.,0.));
#1916=DIRECTION('',(0.,-1.,0.));
#1917=DIRECTION('',(-1.,0.,0.));
#1918=DIRECTION('',(0.,1.,0.));
#1919=DIRECTION('',(1.,0.,0.));
#1920=CARTESIAN_POINT('',(0.,0.,0.));
#1921=CARTESIAN_POINT('',(0.,0.,8.67361737988404E-19));
#1922=CARTESIAN_POINT('',(0.,0.,-1.53080849893419E-19));
#1923=CARTESIAN_POINT('',(0.0027,0.,-1.53080849893419E-19));
#1924=CARTESIAN_POINT('',(7.60702126612847E-19,0.,0.));
#1925=CARTESIAN_POINT('',(0.00445,0.,0.));
#1926=CARTESIAN_POINT('',(0.00225,-0.007,0.0045));
#1927=CARTESIAN_POINT('',(-0.00225,-0.0019,0.0045));
#1928=CARTESIAN_POINT('',(-0.0045,-0.0019,0.0045));
#1929=CARTESIAN_POINT('',(-0.00448023436886956,-0.0019,0.0045));
#1930=CARTESIAN_POINT('',(-0.0045,-0.007,0.0045));
#1931=CARTESIAN_POINT('',(-0.0045,-0.007,0.0045));
#1932=CARTESIAN_POINT('',(0.00225,-0.007,0.0045));
#1933=CARTESIAN_POINT('',(0.0045,-0.007,0.0045));
#1934=CARTESIAN_POINT('',(0.0045,-0.007,0.0045));
#1935=CARTESIAN_POINT('',(0.0045,-0.0019,0.0045));
#1936=CARTESIAN_POINT('',(0.00225,-0.0019,0.0045));
#1937=CARTESIAN_POINT('',(0.00448023436886956,-0.0019,0.0045));
#1938=CARTESIAN_POINT('',(0.00448023436886956,-0.0019,0.0045));
#1939=CARTESIAN_POINT('',(0.00380930072765528,-0.00142662362856708,0.0045));
#1940=CARTESIAN_POINT('',(0.00244591314342892,-0.00054694534204393,0.0045));
#1941=CARTESIAN_POINT('',(0.00083605565974042,-5.00000000000007E-5,0.0045));
#1942=CARTESIAN_POINT('',(1.35142035814882E-18,-5.00000000000006E-5,0.0045));
#1943=CARTESIAN_POINT('',(1.35142035814882E-18,-5.00000000000006E-5,0.0045));
#1944=CARTESIAN_POINT('',(1.58733871603731E-18,-5.00000000000006E-5,0.0045));
#1945=CARTESIAN_POINT('',(-0.000831950651010544,-5.00000000000004E-5,0.0045));
#1946=CARTESIAN_POINT('',(-0.0024343252575171,-0.000540647240504014,0.0045));
#1947=CARTESIAN_POINT('',(-0.0038086212840513,-0.00142614424800233,0.0045));
#1948=CARTESIAN_POINT('',(-0.00448023436886956,-0.0019,0.0045));
#1949=CARTESIAN_POINT('',(0.,-0.007,8.67361737988404E-19));
#1950=CARTESIAN_POINT('',(0.,-0.007,-1.53080849893419E-19));
#1951=CARTESIAN_POINT('',(0.0025,-0.007,2.40741243048404E-34));
#1952=CARTESIAN_POINT('',(0.00127,-0.007,0.004375));
#1953=CARTESIAN_POINT('',(0.001835,-0.007,0.004375));
#1954=CARTESIAN_POINT('',(0.000705,-0.007,0.004375));
#1955=CARTESIAN_POINT('',(0.001835,-0.007,0.00381));
#1956=CARTESIAN_POINT('',(0.001835,-0.007,0.003245));
#1957=CARTESIAN_POINT('',(0.00127,-0.007,0.003245));
#1958=CARTESIAN_POINT('',(0.000705,-0.007,0.003245));
#1959=CARTESIAN_POINT('',(0.000705,-0.007,0.00381));
#1960=CARTESIAN_POINT('',(-0.000705,-0.007,-0.00381));
#1961=CARTESIAN_POINT('',(-0.000705,-0.007,-0.004375));
#1962=CARTESIAN_POINT('',(-0.000705,-0.007,-0.003245));
#1963=CARTESIAN_POINT('',(-0.00127,-0.007,-0.004375));
#1964=CARTESIAN_POINT('',(-0.001835,-0.007,-0.004375));
#1965=CARTESIAN_POINT('',(-0.001835,-0.007,-0.00381));
#1966=CARTESIAN_POINT('',(-0.001835,-0.007,-0.003245));
#1967=CARTESIAN_POINT('',(-0.00127,-0.007,-0.003245));
#1968=CARTESIAN_POINT('',(0.00381,-0.007,0.004375));
#1969=CARTESIAN_POINT('',(0.004375,-0.007,0.004375));
#1970=CARTESIAN_POINT('',(0.003245,-0.007,0.004375));
#1971=CARTESIAN_POINT('',(0.004375,-0.007,0.00381));
#1972=CARTESIAN_POINT('',(0.004375,-0.007,0.003245));
#1973=CARTESIAN_POINT('',(0.00381,-0.007,0.003245));
#1974=CARTESIAN_POINT('',(0.003245,-0.007,0.003245));
#1975=CARTESIAN_POINT('',(0.003245,-0.007,0.00381));
#1976=CARTESIAN_POINT('',(0.004375,-0.007,-0.00381));
#1977=CARTESIAN_POINT('',(0.004375,-0.007,-0.004375));
#1978=CARTESIAN_POINT('',(0.004375,-0.007,-0.003245));
#1979=CARTESIAN_POINT('',(0.00381,-0.007,-0.004375));
#1980=CARTESIAN_POINT('',(0.003245,-0.007,-0.004375));
#1981=CARTESIAN_POINT('',(0.003245,-0.007,-0.00381));
#1982=CARTESIAN_POINT('',(0.003245,-0.007,-0.003245));
#1983=CARTESIAN_POINT('',(0.00381,-0.007,-0.003245));
#1984=CARTESIAN_POINT('',(-0.0045,-0.007,-0.00225));
#1985=CARTESIAN_POINT('',(-0.0045,-0.007,-0.0045));
#1986=CARTESIAN_POINT('',(-0.00225,-0.007,-0.0045));
#1987=CARTESIAN_POINT('',(0.0045,-0.007,-0.0045));
#1988=CARTESIAN_POINT('',(0.0045,-0.007,0.00225));
#1989=CARTESIAN_POINT('',(-0.003245,-0.007,0.00381));
#1990=CARTESIAN_POINT('',(-0.003245,-0.007,0.004375));
#1991=CARTESIAN_POINT('',(-0.003245,-0.007,0.003245));
#1992=CARTESIAN_POINT('',(-0.00381,-0.007,0.003245));
#1993=CARTESIAN_POINT('',(-0.004375,-0.007,0.003245));
#1994=CARTESIAN_POINT('',(-0.004375,-0.007,0.00381));
#1995=CARTESIAN_POINT('',(-0.004375,-0.007,0.004375));
#1996=CARTESIAN_POINT('',(-0.00381,-0.007,0.004375));
#1997=CARTESIAN_POINT('',(-0.000705,-0.007,0.00381));
#1998=CARTESIAN_POINT('',(-0.000705,-0.007,0.004375));
#1999=CARTESIAN_POINT('',(-0.000705,-0.007,0.003245));
#2000=CARTESIAN_POINT('',(-0.00127,-0.007,0.003245));
#2001=CARTESIAN_POINT('',(-0.001835,-0.007,0.003245));
#2002=CARTESIAN_POINT('',(-0.001835,-0.007,0.00381));
#2003=CARTESIAN_POINT('',(-0.001835,-0.007,0.004375));
#2004=CARTESIAN_POINT('',(-0.00127,-0.007,0.004375));
#2005=CARTESIAN_POINT('',(0.001835,-0.007,-0.00381));
#2006=CARTESIAN_POINT('',(0.001835,-0.007,-0.004375));
#2007=CARTESIAN_POINT('',(0.001835,-0.007,-0.003245));
#2008=CARTESIAN_POINT('',(0.00127,-0.007,-0.004375));
#2009=CARTESIAN_POINT('',(0.000705,-0.007,-0.004375));
#2010=CARTESIAN_POINT('',(0.000705,-0.007,-0.00381));
#2011=CARTESIAN_POINT('',(0.000705,-0.007,-0.003245));
#2012=CARTESIAN_POINT('',(0.00127,-0.007,-0.003245));
#2013=CARTESIAN_POINT('',(-0.003245,-0.007,-0.00381));
#2014=CARTESIAN_POINT('',(-0.003245,-0.007,-0.004375));
#2015=CARTESIAN_POINT('',(-0.003245,-0.007,-0.003245));
#2016=CARTESIAN_POINT('',(-0.00381,-0.007,-0.004375));
#2017=CARTESIAN_POINT('',(-0.004375,-0.007,-0.004375));
#2018=CARTESIAN_POINT('',(-0.004375,-0.007,-0.00381));
#2019=CARTESIAN_POINT('',(-0.004375,-0.007,-0.003245));
#2020=CARTESIAN_POINT('',(-0.00381,-0.007,-0.003245));
#2021=CARTESIAN_POINT('',(-0.0045,-0.007,-0.00225));
#2022=CARTESIAN_POINT('',(-0.0045,-0.0019,0.00448023436886956));
#2023=CARTESIAN_POINT('',(-0.0045,-0.00142662362856708,0.00380930072765527));
#2024=CARTESIAN_POINT('',(-0.0045,-0.000546945342043931,0.00244591314342891));
#2025=CARTESIAN_POINT('',(-0.0045,-5.00000000000021E-5,0.000836055659740418));
#2026=CARTESIAN_POINT('',(-0.0045,-5.00000000000019E-5,1.45149488348661E-19));
#2027=CARTESIAN_POINT('',(-0.0045,-0.0019,0.00448023436886956));
#2028=CARTESIAN_POINT('',(-0.0045,-5.00000000000019E-5,1.45149488348661E-19));
#2029=CARTESIAN_POINT('',(-0.0045,-5.00000000000019E-5,0.));
#2030=CARTESIAN_POINT('',(-0.0045,-5.00000000000017E-5,-0.000831950651010546));
#2031=CARTESIAN_POINT('',(-0.0045,-0.000540647240504015,-0.0024343252575171));
#2032=CARTESIAN_POINT('',(-0.0045,-0.00142614424800233,-0.0038086212840513));
#2033=CARTESIAN_POINT('',(-0.0045,-0.0019,-0.00448023436886956));
#2034=CARTESIAN_POINT('',(-0.0045,-0.0019,-0.00448023436886956));
#2035=CARTESIAN_POINT('',(-0.0045,-0.0019,-0.00225));
#2036=CARTESIAN_POINT('',(-0.0045,-0.0019,-0.0045));
#2037=CARTESIAN_POINT('',(-0.0045,-0.007,-0.0045));
#2038=CARTESIAN_POINT('',(-0.0045,-0.0019,0.00225));
#2039=CARTESIAN_POINT('',(0.0045,-0.007,0.00225));
#2040=CARTESIAN_POINT('',(0.0045,-0.007,-0.0045));
#2041=CARTESIAN_POINT('',(0.0045,-0.0019,-0.0045));
#2042=CARTESIAN_POINT('',(0.0045,-0.0019,-0.00225));
#2043=CARTESIAN_POINT('',(0.0045,-0.0019,-0.00448023436886945));
#2044=CARTESIAN_POINT('',(0.0045000000000001,-0.0019,-0.00448023436886946));
#2045=CARTESIAN_POINT('',(0.0045000000000001,-0.0014266236285671,-0.00380930072765518));
#2046=CARTESIAN_POINT('',(0.00449999999999995,-0.000546945342043872,-0.00244591314342887));
#2047=CARTESIAN_POINT('',(0.0045,-4.99999999999909E-5,-0.000836055659740365));
#2048=CARTESIAN_POINT('',(0.0045,-5.E-5,4.96763126901675E-17));
#2049=CARTESIAN_POINT('',(0.0045,-5.E-5,4.94089450485157E-17));
#2050=CARTESIAN_POINT('',(0.0045,-5.E-5,4.94089450485157E-17));
#2051=CARTESIAN_POINT('',(0.0045,-5.0000000000009E-5,0.000831950651010587));
#2052=CARTESIAN_POINT('',(0.0045,-0.000540647240504026,0.00243432525751711));
#2053=CARTESIAN_POINT('',(0.0045,-0.00142614424800233,0.00380862128405132));
#2054=CARTESIAN_POINT('',(0.0045,-0.0019,0.00448023436886956));
#2055=CARTESIAN_POINT('',(0.0045,-0.0019,0.00448023436886956));
#2056=CARTESIAN_POINT('',(0.0045,-0.0019,0.00225));
#2057=CARTESIAN_POINT('',(-0.00225,-0.007,-0.0045));
#2058=CARTESIAN_POINT('',(-0.00225,-0.0019,-0.0045));
#2059=CARTESIAN_POINT('',(-0.00448023436886945,-0.0019,-0.0045));
#2060=CARTESIAN_POINT('',(-0.00448023436886945,-0.0019,-0.0045000000000001));
#2061=CARTESIAN_POINT('',(-0.00380930072765518,-0.0014266236285671,-0.0045000000000001));
#2062=CARTESIAN_POINT('',(-0.00244591314342887,-0.000546945342043872,-0.00449999999999995));
#2063=CARTESIAN_POINT('',(-0.000836055659740363,-4.99999999999912E-5,-0.0045));
#2064=CARTESIAN_POINT('',(5.15875002605562E-17,-5.00000000000006E-5,-0.0045));
#2065=CARTESIAN_POINT('',(5.15875002605562E-17,-5.00000000000006E-5,-0.0045));
#2066=CARTESIAN_POINT('',(5.14443934270994E-17,-5.00000000000006E-5,-0.0045));
#2067=CARTESIAN_POINT('',(0.000831950651010588,-5.000000000001E-5,-0.0045));
#2068=CARTESIAN_POINT('',(0.00243432525751712,-0.000540647240504027,-0.0045));
#2069=CARTESIAN_POINT('',(0.00380862128405131,-0.00142614424800233,-0.0045));
#2070=CARTESIAN_POINT('',(0.00448023436886956,-0.0019,-0.0045));
#2071=CARTESIAN_POINT('',(0.00448023436886956,-0.0019,-0.0045));
#2072=CARTESIAN_POINT('',(0.00225,-0.0019,-0.0045));
#2073=CARTESIAN_POINT('',(0.00381,-0.0105,-0.004375));
#2074=CARTESIAN_POINT('',(0.004375,-0.0105,-0.004375));
#2075=CARTESIAN_POINT('',(0.004375,-0.0102,-0.004375));
#2076=CARTESIAN_POINT('',(0.00381,-0.0102,-0.004375));
#2077=CARTESIAN_POINT('',(0.003245,-0.0102,-0.004375));
#2078=CARTESIAN_POINT('',(0.003245,-0.0105,-0.004375));
#2079=CARTESIAN_POINT('',(0.004375,-0.0105,-0.00381));
#2080=CARTESIAN_POINT('',(0.004375,-0.0105,-0.003245));
#2081=CARTESIAN_POINT('',(0.004375,-0.0102,-0.003245));
#2082=CARTESIAN_POINT('',(0.004375,-0.0102,-0.004375));
#2083=CARTESIAN_POINT('',(0.00381,-0.0105,-0.003245));
#2084=CARTESIAN_POINT('',(0.003245,-0.0105,-0.003245));
#2085=CARTESIAN_POINT('',(0.003245,-0.0102,-0.003245));
#2086=CARTESIAN_POINT('',(0.004375,-0.0102,-0.003245));
#2087=CARTESIAN_POINT('',(0.003245,-0.0105,-0.00381));
#2088=CARTESIAN_POINT('',(0.003245,-0.0102,-0.00381));
#2089=CARTESIAN_POINT('',(-0.00104092377796769,-0.0105,0.00105543564632535));
#2090=CARTESIAN_POINT('',(0.003245,-0.0105,-0.003545));
#2091=CARTESIAN_POINT('',(0.004075,-0.0105,-0.003545));
#2092=CARTESIAN_POINT('',(0.003545,-0.0105,-0.003545));
#2093=CARTESIAN_POINT('',(0.003545,-0.0105,0.00105543564632535));
#2094=CARTESIAN_POINT('',(0.003545,-0.0105,-0.004075));
#2095=CARTESIAN_POINT('',(-0.00104092377796769,-0.0105,-0.004075));
#2096=CARTESIAN_POINT('',(0.004075,-0.0105,-0.004075));
#2097=CARTESIAN_POINT('',(0.004075,-0.0105,-0.003245));
#2098=CARTESIAN_POINT('',(0.00381,-0.0105,0.004375));
#2099=CARTESIAN_POINT('',(0.003245,-0.0105,0.004375));
#2100=CARTESIAN_POINT('',(0.003245,-0.0102,0.004375));
#2101=CARTESIAN_POINT('',(0.004375,-0.0102,0.004375));
#2102=CARTESIAN_POINT('',(0.004375,-0.0102,0.004375));
#2103=CARTESIAN_POINT('',(0.004375,-0.0105,0.004375));
#2104=CARTESIAN_POINT('',(0.003245,-0.0105,0.00381));
#2105=CARTESIAN_POINT('',(0.003245,-0.0105,0.003245));
#2106=CARTESIAN_POINT('',(0.003245,-0.0102,0.003245));
#2107=CARTESIAN_POINT('',(0.003245,-0.0102,0.004375));
#2108=CARTESIAN_POINT('',(0.00381,-0.0105,0.003245));
#2109=CARTESIAN_POINT('',(0.004375,-0.0105,0.003245));
#2110=CARTESIAN_POINT('',(0.004375,-0.0102,0.003245));
#2111=CARTESIAN_POINT('',(0.00381,-0.0102,0.003245));
#2112=CARTESIAN_POINT('',(0.004375,-0.0105,0.00381));
#2113=CARTESIAN_POINT('',(0.004375,-0.0102,0.00381));
#2114=CARTESIAN_POINT('',(-0.00104092377796769,-0.0105,0.00105543564632535));
#2115=CARTESIAN_POINT('',(-0.00104092377796769,-0.0105,0.003545));
#2116=CARTESIAN_POINT('',(0.003545,-0.0105,0.003545));
#2117=CARTESIAN_POINT('',(0.004075,-0.0105,0.003545));
#2118=CARTESIAN_POINT('',(0.004075,-0.0105,0.00105543564632535));
#2119=CARTESIAN_POINT('',(0.004075,-0.0105,0.004075));
#2120=CARTESIAN_POINT('',(0.003245,-0.0105,0.004075));
#2121=CARTESIAN_POINT('',(0.003545,-0.0105,0.004075));
#2122=CARTESIAN_POINT('',(0.003545,-0.0105,0.003245));
#2123=CARTESIAN_POINT('',(-0.00381,-0.0105,0.003245));
#2124=CARTESIAN_POINT('',(-0.003245,-0.0105,0.003245));
#2125=CARTESIAN_POINT('',(-0.003245,-0.0102,0.003245));
#2126=CARTESIAN_POINT('',(-0.00381,-0.0102,0.003245));
#2127=CARTESIAN_POINT('',(-0.004375,-0.0102,0.003245));
#2128=CARTESIAN_POINT('',(-0.004375,-0.0105,0.003245));
#2129=CARTESIAN_POINT('',(-0.003245,-0.0105,0.00381));
#2130=CARTESIAN_POINT('',(-0.003245,-0.0105,0.004375));
#2131=CARTESIAN_POINT('',(-0.003245,-0.0102,0.004375));
#2132=CARTESIAN_POINT('',(-0.003245,-0.0102,0.00381));
#2133=CARTESIAN_POINT('',(-0.00381,-0.0105,0.004375));
#2134=CARTESIAN_POINT('',(-0.004375,-0.0105,0.004375));
#2135=CARTESIAN_POINT('',(-0.004375,-0.0102,0.004375));
#2136=CARTESIAN_POINT('',(-0.003245,-0.0102,0.004375));
#2137=CARTESIAN_POINT('',(-0.004375,-0.0105,0.00381));
#2138=CARTESIAN_POINT('',(-0.004375,-0.0102,0.004375));
#2139=CARTESIAN_POINT('',(-0.00104092377796769,-0.0105,0.00105543564632535));
#2140=CARTESIAN_POINT('',(-0.003545,-0.0105,0.00105543564632535));
#2141=CARTESIAN_POINT('',(-0.003545,-0.0105,0.003545));
#2142=CARTESIAN_POINT('',(-0.003545,-0.0105,0.004075));
#2143=CARTESIAN_POINT('',(-0.004375,-0.0105,0.004075));
#2144=CARTESIAN_POINT('',(-0.004075,-0.0105,0.004075));
#2145=CARTESIAN_POINT('',(-0.004075,-0.0105,0.003245));
#2146=CARTESIAN_POINT('',(-0.004075,-0.0105,0.003545));
#2147=CARTESIAN_POINT('',(-0.00104092377796769,-0.0105,0.003545));
#2148=CARTESIAN_POINT('',(-0.00127,-0.0105,0.003245));
#2149=CARTESIAN_POINT('',(-0.000705,-0.0105,0.003245));
#2150=CARTESIAN_POINT('',(-0.000705,-0.0102,0.003245));
#2151=CARTESIAN_POINT('',(-0.00127,-0.0102,0.003245));
#2152=CARTESIAN_POINT('',(-0.001835,-0.0102,0.003245));
#2153=CARTESIAN_POINT('',(-0.001835,-0.0105,0.003245));
#2154=CARTESIAN_POINT('',(-0.000705,-0.0105,0.00381));
#2155=CARTESIAN_POINT('',(-0.000705,-0.0105,0.004375));
#2156=CARTESIAN_POINT('',(-0.000705,-0.0102,0.004375));
#2157=CARTESIAN_POINT('',(-0.000705,-0.0102,0.00381));
#2158=CARTESIAN_POINT('',(-0.00127,-0.0105,0.004375));
#2159=CARTESIAN_POINT('',(-0.001835,-0.0105,0.004375));
#2160=CARTESIAN_POINT('',(-0.001835,-0.0102,0.004375));
#2161=CARTESIAN_POINT('',(-0.000705,-0.0102,0.004375));
#2162=CARTESIAN_POINT('',(-0.001835,-0.0105,0.00381));
#2163=CARTESIAN_POINT('',(-0.001835,-0.0102,0.004375));
#2164=CARTESIAN_POINT('',(-0.00104092377796769,-0.0105,0.00105543564632535));
#2165=CARTESIAN_POINT('',(-0.001005,-0.0105,0.00105543564632535));
#2166=CARTESIAN_POINT('',(-0.001005,-0.0105,0.003545));
#2167=CARTESIAN_POINT('',(-0.001005,-0.0105,0.004075));
#2168=CARTESIAN_POINT('',(-0.001835,-0.0105,0.004075));
#2169=CARTESIAN_POINT('',(-0.001535,-0.0105,0.004075));
#2170=CARTESIAN_POINT('',(-0.001535,-0.0105,0.003245));
#2171=CARTESIAN_POINT('',(-0.001535,-0.0105,0.003545));
#2172=CARTESIAN_POINT('',(-0.00104092377796769,-0.0105,0.003545));
#2173=CARTESIAN_POINT('',(0.001835,-0.0105,-0.00381));
#2174=CARTESIAN_POINT('',(0.001835,-0.0105,-0.003245));
#2175=CARTESIAN_POINT('',(0.001835,-0.0102,-0.003245));
#2176=CARTESIAN_POINT('',(0.001835,-0.0102,-0.004375));
#2177=CARTESIAN_POINT('',(0.001835,-0.0102,-0.004375));
#2178=CARTESIAN_POINT('',(0.001835,-0.0105,-0.004375));
#2179=CARTESIAN_POINT('',(0.00127,-0.0105,-0.003245));
#2180=CARTESIAN_POINT('',(0.000705,-0.0105,-0.003245));
#2181=CARTESIAN_POINT('',(0.000705,-0.0102,-0.003245));
#2182=CARTESIAN_POINT('',(0.001835,-0.0102,-0.003245));
#2183=CARTESIAN_POINT('',(0.000705,-0.0105,-0.00381));
#2184=CARTESIAN_POINT('',(0.000705,-0.0105,-0.004375));
#2185=CARTESIAN_POINT('',(0.000705,-0.0102,-0.004375));
#2186=CARTESIAN_POINT('',(0.000705,-0.0102,-0.00381));
#2187=CARTESIAN_POINT('',(0.00127,-0.0105,-0.004375));
#2188=CARTESIAN_POINT('',(0.00127,-0.0102,-0.004375));
#2189=CARTESIAN_POINT('',(-0.00104092377796769,-0.0105,0.00105543564632535));
#2190=CARTESIAN_POINT('',(0.001005,-0.0105,0.00105543564632535));
#2191=CARTESIAN_POINT('',(0.001005,-0.0105,-0.003545));
#2192=CARTESIAN_POINT('',(0.001005,-0.0105,-0.004075));
#2193=CARTESIAN_POINT('',(-0.00104092377796769,-0.0105,-0.004075));
#2194=CARTESIAN_POINT('',(0.001535,-0.0105,-0.004075));
#2195=CARTESIAN_POINT('',(0.001535,-0.0105,-0.003245));
#2196=CARTESIAN_POINT('',(0.001535,-0.0105,-0.003545));
#2197=CARTESIAN_POINT('',(0.000705,-0.0105,-0.003545));
#2198=CARTESIAN_POINT('',(-0.000705,-0.0105,-0.00381));
#2199=CARTESIAN_POINT('',(-0.000705,-0.0105,-0.003245));
#2200=CARTESIAN_POINT('',(-0.000705,-0.0102,-0.003245));
#2201=CARTESIAN_POINT('',(-0.000705,-0.0102,-0.004375));
#2202=CARTESIAN_POINT('',(-0.000705,-0.0102,-0.004375));
#2203=CARTESIAN_POINT('',(-0.000705,-0.0105,-0.004375));
#2204=CARTESIAN_POINT('',(-0.00127,-0.0105,-0.003245));
#2205=CARTESIAN_POINT('',(-0.001835,-0.0105,-0.003245));
#2206=CARTESIAN_POINT('',(-0.001835,-0.0102,-0.003245));
#2207=CARTESIAN_POINT('',(-0.000705,-0.0102,-0.003245));
#2208=CARTESIAN_POINT('',(-0.001835,-0.0105,-0.00381));
#2209=CARTESIAN_POINT('',(-0.001835,-0.0105,-0.004375));
#2210=CARTESIAN_POINT('',(-0.001835,-0.0102,-0.004375));
#2211=CARTESIAN_POINT('',(-0.001835,-0.0102,-0.00381));
#2212=CARTESIAN_POINT('',(-0.00127,-0.0105,-0.004375));
#2213=CARTESIAN_POINT('',(-0.00127,-0.0102,-0.004375));
#2214=CARTESIAN_POINT('',(-0.00104092377796769,-0.0105,0.00105543564632535));
#2215=CARTESIAN_POINT('',(-0.001535,-0.0105,0.00105543564632535));
#2216=CARTESIAN_POINT('',(-0.001535,-0.0105,-0.003545));
#2217=CARTESIAN_POINT('',(-0.001535,-0.0105,-0.004075));
#2218=CARTESIAN_POINT('',(-0.00104092377796769,-0.0105,-0.004075));
#2219=CARTESIAN_POINT('',(-0.001005,-0.0105,-0.004075));
#2220=CARTESIAN_POINT('',(-0.001005,-0.0105,-0.003245));
#2221=CARTESIAN_POINT('',(-0.001005,-0.0105,-0.003545));
#2222=CARTESIAN_POINT('',(-0.001835,-0.0105,-0.003545));
#2223=CARTESIAN_POINT('',(-0.003245,-0.0105,-0.00381));
#2224=CARTESIAN_POINT('',(-0.003245,-0.0105,-0.003245));
#2225=CARTESIAN_POINT('',(-0.003245,-0.0102,-0.003245));
#2226=CARTESIAN_POINT('',(-0.003245,-0.0102,-0.004375));
#2227=CARTESIAN_POINT('',(-0.003245,-0.0102,-0.004375));
#2228=CARTESIAN_POINT('',(-0.003245,-0.0105,-0.004375));
#2229=CARTESIAN_POINT('',(-0.00381,-0.0105,-0.003245));
#2230=CARTESIAN_POINT('',(-0.004375,-0.0105,-0.003245));
#2231=CARTESIAN_POINT('',(-0.004375,-0.0102,-0.003245));
#2232=CARTESIAN_POINT('',(-0.003245,-0.0102,-0.003245));
#2233=CARTESIAN_POINT('',(-0.004375,-0.0105,-0.00381));
#2234=CARTESIAN_POINT('',(-0.004375,-0.0105,-0.004375));
#2235=CARTESIAN_POINT('',(-0.004375,-0.0102,-0.004375));
#2236=CARTESIAN_POINT('',(-0.004375,-0.0102,-0.00381));
#2237=CARTESIAN_POINT('',(-0.00381,-0.0105,-0.004375));
#2238=CARTESIAN_POINT('',(-0.00381,-0.0102,-0.004375));
#2239=CARTESIAN_POINT('',(-0.00104092377796769,-0.0105,0.00105543564632535));
#2240=CARTESIAN_POINT('',(-0.004075,-0.0105,0.00105543564632535));
#2241=CARTESIAN_POINT('',(-0.004075,-0.0105,-0.003545));
#2242=CARTESIAN_POINT('',(-0.004075,-0.0105,-0.004075));
#2243=CARTESIAN_POINT('',(-0.00104092377796769,-0.0105,-0.004075));
#2244=CARTESIAN_POINT('',(-0.003545,-0.0105,-0.004075));
#2245=CARTESIAN_POINT('',(-0.003545,-0.0105,-0.003245));
#2246=CARTESIAN_POINT('',(-0.003545,-0.0105,-0.003545));
#2247=CARTESIAN_POINT('',(-0.004375,-0.0105,-0.003545));
#2248=CARTESIAN_POINT('',(0.001835,-0.0105,0.00381));
#2249=CARTESIAN_POINT('',(0.001835,-0.0105,0.004375));
#2250=CARTESIAN_POINT('',(0.001835,-0.0102,0.004375));
#2251=CARTESIAN_POINT('',(0.001835,-0.0102,0.00381));
#2252=CARTESIAN_POINT('',(0.001835,-0.0102,0.003245));
#2253=CARTESIAN_POINT('',(0.001835,-0.0105,0.003245));
#2254=CARTESIAN_POINT('',(0.00127,-0.0105,0.004375));
#2255=CARTESIAN_POINT('',(0.000705,-0.0105,0.004375));
#2256=CARTESIAN_POINT('',(0.000705,-0.0102,0.004375));
#2257=CARTESIAN_POINT('',(0.001835,-0.0102,0.004375));
#2258=CARTESIAN_POINT('',(0.000705,-0.0105,0.00381));
#2259=CARTESIAN_POINT('',(0.000705,-0.0105,0.003245));
#2260=CARTESIAN_POINT('',(0.000705,-0.0102,0.003245));
#2261=CARTESIAN_POINT('',(0.000705,-0.0102,0.004375));
#2262=CARTESIAN_POINT('',(0.00127,-0.0105,0.003245));
#2263=CARTESIAN_POINT('',(0.00127,-0.0102,0.003245));
#2264=CARTESIAN_POINT('',(-0.00104092377796769,-0.0105,0.00105543564632535));
#2265=CARTESIAN_POINT('',(0.001005,-0.0105,0.003245));
#2266=CARTESIAN_POINT('',(0.001005,-0.0105,0.004075));
#2267=CARTESIAN_POINT('',(0.001005,-0.0105,0.003545));
#2268=CARTESIAN_POINT('',(-0.00104092377796769,-0.0105,0.003545));
#2269=CARTESIAN_POINT('',(0.001535,-0.0105,0.003545));
#2270=CARTESIAN_POINT('',(0.001535,-0.0105,0.00105543564632535));
#2271=CARTESIAN_POINT('',(0.001535,-0.0105,0.004075));
#2272=CARTESIAN_POINT('',(0.000705,-0.0105,0.004075));
#2273=CARTESIAN_POINT('',(0.003545,-0.0105,0.00105543564632535));
#2274=CARTESIAN_POINT('',(0.00343333333333334,-0.0103883333333333,0.00343333333333334));
#2275=CARTESIAN_POINT('',(0.00455152145122488,-0.0115065214512249,0.00306847854877512));
#2276=CARTESIAN_POINT('',(-0.00104092377796769,-0.0105,0.004075));
#2277=CARTESIAN_POINT('',(0.00236969207401077,-0.0122053079259892,0.00236969207401077));
#2278=CARTESIAN_POINT('',(0.00381,-0.0102,0.003245));
#2279=CARTESIAN_POINT('',(0.00418666666666667,-0.0103883333333333,0.00343333333333334));
#2280=CARTESIAN_POINT('',(0.004375,-0.0102,0.00381));
#2281=CARTESIAN_POINT('',(-0.00381,-0.0102,0.003245));
#2282=CARTESIAN_POINT('',(-0.00490485478455822,-0.00967014521544178,0.00271514521544179));
#2283=CARTESIAN_POINT('',(-0.00343333333333334,-0.0103883333333333,0.00343333333333334));
#2284=CARTESIAN_POINT('',(-0.003245,-0.0102,0.00381));
#2285=CARTESIAN_POINT('',(-0.00343333333333334,-0.0103883333333333,0.00418666666666667));
#2286=CARTESIAN_POINT('',(-0.004075,-0.0105,0.00105543564632535));
#2287=CARTESIAN_POINT('',(-0.00306847854877512,-0.0115065214512249,0.00306847854877512));
#2288=CARTESIAN_POINT('',(-0.00104092377796769,-0.0105,0.004075));
#2289=CARTESIAN_POINT('',(-0.00127,-0.0102,0.003245));
#2290=CARTESIAN_POINT('',(-0.00164666666666666,-0.0103883333333333,0.00343333333333334));
#2291=CARTESIAN_POINT('',(-0.000893333333333332,-0.0103883333333333,0.00343333333333334));
#2292=CARTESIAN_POINT('',(-0.000705,-0.0102,0.00381));
#2293=CARTESIAN_POINT('',(-0.000893333333333333,-0.0103883333333333,0.00418666666666667));
#2294=CARTESIAN_POINT('',(-0.001535,-0.0105,0.00105543564632535));
#2295=CARTESIAN_POINT('',(-0.000528478548775117,-0.0115065214512249,0.00306847854877512));
#2296=CARTESIAN_POINT('',(-0.00104092377796769,-0.0105,0.004075));
#2297=CARTESIAN_POINT('',(-0.00104092377796769,-0.0105,0.004075));
#2298=CARTESIAN_POINT('',(0.000323025407344103,-0.0098180254073441,0.0047569745926559));
#2299=CARTESIAN_POINT('',(0.00164666666666667,-0.0103883333333333,0.00418666666666667));
#2300=CARTESIAN_POINT('',(0.001835,-0.0102,0.00381));
#2301=CARTESIAN_POINT('',(0.00164666666666667,-0.0103883333333333,0.00343333333333334));
#2302=CARTESIAN_POINT('',(0.001005,-0.0105,0.00105543564632535));
#2303=CARTESIAN_POINT('',(0.000175145215441781,-0.00967014521544178,0.00271514521544179));
#2304=CARTESIAN_POINT('',(0.00127,-0.0102,0.003245));
#2305=CARTESIAN_POINT('',(-0.00104092377796769,-0.0105,-0.003545));
#2306=CARTESIAN_POINT('',(-0.00306364125932256,-0.0115113587406774,-0.00455635874067744));
#2307=CARTESIAN_POINT('',(-0.00201152145122488,-0.00896652145122488,-0.00201152145122488));
#2308=CARTESIAN_POINT('',(-0.003545,-0.0105,0.00105543564632535));
#2309=CARTESIAN_POINT('',(-0.00525514521544178,-0.0122101452154418,-0.00236485478455822));
#2310=CARTESIAN_POINT('',(-0.004375,-0.0102,-0.00381));
#2311=CARTESIAN_POINT('',(-0.00418666666666666,-0.0103883333333333,-0.00418666666666667));
#2312=CARTESIAN_POINT('',(-0.00381,-0.0102,-0.004375));
#2313=CARTESIAN_POINT('',(-0.00104092377796769,-0.0105,-0.003545));
#2314=CARTESIAN_POINT('',(-0.00137030792598923,-0.0106646920740108,-0.00370969207401077));
#2315=CARTESIAN_POINT('',(0.000528478548775117,-0.00896652145122488,-0.00201152145122489));
#2316=CARTESIAN_POINT('',(-0.001005,-0.0105,0.00105543564632535));
#2317=CARTESIAN_POINT('',(-0.00271514521544179,-0.0122101452154418,-0.00236485478455822));
#2318=CARTESIAN_POINT('',(-0.001835,-0.0102,-0.00381));
#2319=CARTESIAN_POINT('',(-0.00164666666666667,-0.0103883333333333,-0.00418666666666667));
#2320=CARTESIAN_POINT('',(-0.00127,-0.0102,-0.004375));
#2321=CARTESIAN_POINT('',(-0.00104092377796769,-0.0105,-0.003545));
#2322=CARTESIAN_POINT('',(0.000323025407344102,-0.0098180254073441,-0.00286302540734411));
#2323=CARTESIAN_POINT('',(0.00306847854877512,-0.00896652145122489,-0.00201152145122489));
#2324=CARTESIAN_POINT('',(0.001535,-0.0105,0.00105543564632535));
#2325=CARTESIAN_POINT('',(-0.000175145215441783,-0.0122101452154418,-0.00236485478455821));
#2326=CARTESIAN_POINT('',(0.000705,-0.0102,-0.00381));
#2327=CARTESIAN_POINT('',(0.000893333333333332,-0.0103883333333333,-0.00418666666666667));
#2328=CARTESIAN_POINT('',(0.00127,-0.0102,-0.004375));
#2329=CARTESIAN_POINT('',(0.004075,-0.0105,0.00105543564632535));
#2330=CARTESIAN_POINT('',(0.00236969207401077,-0.0122053079259892,-0.00525030792598923));
#2331=CARTESIAN_POINT('',(0.00236485478455822,-0.0122101452154418,-0.00236485478455822));
#2332=CARTESIAN_POINT('',(0.00381,-0.0102,-0.004375));
#2333=CARTESIAN_POINT('',(0.00343333333333334,-0.0103883333333333,-0.00418666666666666));
#2334=CARTESIAN_POINT('',(-0.00104092377796769,-0.0105,-0.003545));
#2335=CARTESIAN_POINT('',(0.00201635874067743,-0.00897135874067744,-0.00201635874067744));
#2336=CARTESIAN_POINT('',(0.003245,-0.0102,-0.00381));
#2337=CARTESIAN_POINT('',(0.,-0.007,-1.53080849893419E-19));
#2338=CARTESIAN_POINT('',(0.,-0.0002,-1.53080849893419E-19));
#2339=CARTESIAN_POINT('',(0.0025,-0.0002,-1.53080849893419E-19));
#2340=CARTESIAN_POINT('',(0.,-0.0019,8.67361737988404E-19));
#2341=CARTESIAN_POINT('',(7.60702126612847E-19,-0.0019,0.));
#2342=CARTESIAN_POINT('',(0.,-0.0019,8.67361737988404E-19));
#2343=CARTESIAN_POINT('',(7.60702126612847E-19,-0.0019,0.));
#2344=CARTESIAN_POINT('',(0.,-0.0019,8.67361737988404E-19));
#2345=CARTESIAN_POINT('',(7.60702126612847E-19,-0.0019,0.));
#2346=CARTESIAN_POINT('',(0.,-0.0019,8.67361737988404E-19));
#2347=CARTESIAN_POINT('',(7.60702126612847E-19,-0.0019,0.));
#2348=CARTESIAN_POINT('',(7.60702126612847E-19,-5.00000000000006E-5,0.));
#2349=CARTESIAN_POINT('',(0.,-0.0002,-1.53080849893419E-19));
#2350=MECHANICAL_DESIGN_GEOMETRIC_PRESENTATION_REPRESENTATION('',(#1451),
#2351);
#2351=(
GEOMETRIC_REPRESENTATION_CONTEXT(3)
GLOBAL_UNCERTAINTY_ASSIGNED_CONTEXT((#2352))
GLOBAL_UNIT_ASSIGNED_CONTEXT((#2355,#2354,#2353))
REPRESENTATION_CONTEXT('jerry''s nut','TOP_LEVEL_ASSEMBLY_PART')
);
#2352=UNCERTAINTY_MEASURE_WITH_UNIT(LENGTH_MEASURE(2.E-5),#2355,
'DISTANCE_ACCURACY_VALUE','Maximum Tolerance applied to model');
#2353=(
NAMED_UNIT(*)
SI_UNIT($,.STERADIAN.)
SOLID_ANGLE_UNIT()
);
#2354=(
NAMED_UNIT(*)
PLANE_ANGLE_UNIT()
SI_UNIT($,.RADIAN.)
);
#2355=(
LENGTH_UNIT()
NAMED_UNIT(*)
SI_UNIT($,.METRE.)
);
#2356=PRODUCT_DEFINITION_SHAPE('','',#2357);
#2357=PRODUCT_DEFINITION('','',#2359,#2358);
#2358=DESIGN_CONTEXT('',#2365,'design');
#2359=PRODUCT_DEFINITION_FORMATION_WITH_SPECIFIED_SOURCE('','',#2361,
 .NOT_KNOWN.);
#2360=PRODUCT_RELATED_PRODUCT_CATEGORY('','',(#2361));
#2361=PRODUCT('jerry''s nut','jerry''s nut','jerry''s nut',(#2363));
#2362=PRODUCT_CATEGORY('','');
#2363=MECHANICAL_CONTEXT('',#2365,'mechanical');
#2364=APPLICATION_PROTOCOL_DEFINITION('international standard',
'config_control_design',2010,#2365);
#2365=APPLICATION_CONTEXT(
'configuration controlled 3D designs of mechanical parts and assemblie
s');
ENDSEC;
END-ISO-10303-21;
